<?xml version="1.0" standalone="no"?>
<!DOCTYPE svg PUBLIC "-//W3C//DTD SVG 20010904//EN"
 "http://www.w3.org/TR/2001/REC-SVG-20010904/DTD/svg10.dtd">
<svg version="1.0" xmlns="http://www.w3.org/2000/svg"
 width="750.000000pt" height="550.000000pt" viewBox="0 0 750.000000 550.000000"
 preserveAspectRatio="xMidYMid meet">
<metadata>
Created by potrace 1.16, written by Peter Selinger 2001-2019
</metadata>
<g transform="translate(0.000000,550.000000) scale(0.100000,-0.100000)"
fill="#000000" stroke="none">
<path d="M300 5491 c-38 -4 -58 -9 -48 -13 9 -4 26 -4 37 -1 12 3 21 2 21 -2
0 -8 -26 -35 -35 -35 -12 0 -35 -28 -35 -43 0 -7 11 -20 25 -27 34 -18 32 -51
-5 -83 -35 -31 -39 -54 -10 -59 12 -2 21 -7 21 -13 0 -5 5 -15 10 -21 6 -7 2
-18 -11 -29 -12 -10 -18 -25 -16 -32 3 -7 -3 -18 -12 -25 -22 -17 -28 -76 -8
-84 28 -11 28 -37 -1 -60 -23 -20 -25 -23 -9 -24 14 0 17 -5 12 -24 -4 -15 0
-28 10 -36 12 -11 12 -15 2 -21 -7 -5 -8 -9 -3 -9 29 -1 35 -16 19 -49 -21
-42 -14 -110 14 -146 19 -24 20 -28 6 -43 -12 -11 -14 -26 -9 -56 16 -104 4
-262 -23 -306 -21 -34 -21 -70 0 -97 6 -7 7 -30 4 -50 -18 -102 -18 -115 -5
-124 12 -7 12 -12 1 -29 -8 -13 -10 -26 -4 -33 4 -7 7 -37 5 -67 -5 -83 -3
-106 11 -128 4 -7 1 -12 -8 -12 -9 0 -16 -4 -16 -10 0 -5 -6 -10 -14 -10 -7 0
-19 -6 -25 -14 -7 -8 -20 -15 -29 -15 -9 0 -26 -1 -37 -4 -13 -2 -24 5 -35 24
-8 15 -27 45 -41 66 -15 21 -33 61 -42 88 -15 49 -15 46 -16 -132 -1 -101 1
-183 4 -183 4 0 19 7 36 15 24 13 32 13 45 3 37 -30 76 -75 90 -105 9 -18 28
-36 45 -42 36 -12 37 -26 3 -29 -15 -1 -34 -8 -42 -14 -9 -8 -47 -13 -98 -13
l-84 0 0 -578 c0 -456 3 -577 12 -571 26 16 50 10 73 -18 20 -23 29 -27 51
-22 22 6 25 11 20 35 -4 22 -1 31 14 39 27 15 30 13 41 -20 11 -31 29 -41 29
-15 0 22 31 18 37 -5 7 -26 33 -26 33 -1 0 33 15 31 45 -5 16 -19 38 -34 50
-34 12 0 30 -8 41 -18 28 -27 200 -51 362 -52 23 0 42 -5 42 -10 0 -6 -11 -10
-25 -10 -16 0 -25 -6 -25 -15 0 -11 11 -15 40 -15 22 0 40 5 40 10 0 6 14 10
30 10 20 0 33 6 37 18 11 27 40 55 51 48 15 -9 3 -44 -17 -49 -9 -3 1 -3 21
-2 52 4 65 -15 32 -48 -19 -19 -31 -24 -43 -18 -9 4 -37 9 -62 10 -40 2 -47
-1 -57 -24 -6 -14 -18 -25 -26 -25 -22 0 -42 -40 -26 -50 14 -9 6 -40 -10 -40
-5 0 -10 4 -10 9 0 14 -50 0 -63 -19 -7 -11 -32 -20 -65 -25 -38 -5 -52 -11
-48 -20 5 -14 -14 -25 -45 -25 -10 0 -19 -4 -19 -10 0 -5 -8 -10 -18 -10 -10
0 -22 -3 -26 -7 -7 -7 -38 -10 -142 -12 -11 -1 -30 -10 -42 -21 -25 -24 -47
-26 -38 -5 11 30 -66 14 -101 -21 -7 -7 -18 -15 -25 -17 -10 -4 -9 -8 2 -16
23 -17 -3 -14 -85 9 -38 11 -73 20 -77 20 -5 0 -8 -380 -8 -845 l0 -845 183 0
183 0 -3 347 c-2 192 -3 389 -2 438 1 50 0 122 -2 160 -2 39 -4 120 -4 181 0
96 3 117 24 162 14 29 28 52 33 52 4 0 8 6 8 13 0 18 83 135 118 167 44 39
104 83 142 104 19 10 37 22 40 25 8 12 128 71 142 71 19 -1 -44 -50 -64 -50
-9 0 -20 -5 -23 -10 -3 -5 -15 -10 -27 -10 -11 0 -22 -8 -25 -20 -3 -11 -16
-23 -29 -26 -13 -3 -24 -15 -26 -27 -2 -12 -12 -23 -22 -25 -19 -4 -37 -16
-59 -40 -7 -8 -21 -24 -33 -35 -12 -12 -26 -32 -32 -43 -10 -19 -9 -23 8 -27
20 -5 20 -5 -1 -41 -18 -31 -19 -40 -9 -72 l13 -37 13 29 c11 25 12 26 13 7 1
-12 15 -44 32 -72 32 -51 50 -70 28 -30 -9 17 -8 25 5 37 15 15 16 13 16 -23
0 -29 7 -46 25 -64 l25 -23 0 22 c0 19 2 21 16 10 13 -12 15 -10 12 11 -2 13
-9 34 -16 46 -7 12 -12 29 -12 37 0 9 -6 25 -12 36 -10 15 -10 22 -1 31 10 10
15 6 23 -17 6 -16 18 -44 28 -62 l17 -32 12 32 c6 18 12 25 12 16 1 -9 6 -29
13 -45 6 -15 10 -32 9 -37 -1 -5 1 -16 4 -24 4 -11 8 -12 19 -3 11 10 11 18
-1 53 -12 36 -12 44 0 53 7 5 12 17 10 25 -3 10 1 8 12 -5 8 -11 13 -25 11
-32 -3 -7 7 -25 21 -40 14 -16 23 -22 18 -14 -5 9 0 8 17 -3 14 -9 33 -34 44
-56 17 -36 48 -60 61 -47 8 9 -19 51 -54 83 -20 19 -33 40 -33 55 1 24 1 24
16 4 8 -11 20 -27 27 -36 20 -25 48 -73 54 -91 3 -11 15 -18 30 -18 25 0 25 0
7 28 -38 58 -48 89 -52 167 -5 102 8 151 57 206 46 53 107 87 215 124 102 34
207 41 315 21 60 -11 90 -12 103 -5 19 10 19 11 1 24 -10 8 -25 15 -34 15 -8
0 -24 7 -35 15 -25 19 -34 19 -34 0 0 -20 -12 -19 -39 4 -17 14 -32 18 -59 15
l-37 -5 24 20 c15 14 37 21 62 21 21 0 39 5 39 10 0 6 7 10 16 10 25 0 13 44
-13 48 -16 2 -22 -3 -25 -20 -2 -13 -9 -22 -16 -20 -23 4 -57 5 -69 1 -6 -2
-13 1 -15 6 -1 6 12 11 30 13 35 4 40 24 6 31 -10 1 -27 10 -36 18 -10 9 -22
12 -30 7 -7 -4 -35 -7 -63 -5 -27 1 -54 2 -60 3 -5 0 -35 -7 -65 -15 -64 -18
-126 -24 -136 -15 -3 4 7 10 22 13 16 4 43 11 59 15 58 17 215 30 485 42 44 2
351 -65 437 -96 55 -19 137 -72 192 -124 37 -34 45 -48 45 -79 1 -36 2 -38 32
-36 28 2 32 -1 38 -28 6 -33 0 -53 -13 -44 -15 8 -44 -33 -38 -55 3 -13 0 -20
-8 -20 -8 0 -21 -9 -29 -21 -19 -27 -40 -15 -33 20 3 15 -1 34 -9 46 -13 17
-16 18 -25 5 -11 -17 -4 -99 11 -114 6 -6 15 -4 25 4 16 13 21 1 6 -15 -5 -6
-11 -21 -13 -35 -2 -14 -10 -25 -18 -25 -8 0 -14 7 -12 17 1 9 -2 19 -8 23 -5
3 -10 16 -10 28 -1 22 -21 57 -34 57 -3 0 -6 -9 -6 -19 0 -11 -5 -23 -11 -27
-6 -3 -8 -17 -5 -30 7 -28 -8 -33 -19 -7 -6 16 -9 15 -27 -7 -18 -22 -18 -25
-4 -28 19 -4 21 -16 3 -31 -10 -8 -17 -7 -26 2 -10 10 -12 7 -9 -13 2 -18 -7
-34 -38 -62 -23 -21 -47 -38 -55 -38 -8 -1 -1 -6 15 -13 l29 -13 -42 -18 c-44
-20 -67 -15 -36 8 10 7 15 17 12 23 -8 12 68 87 80 80 5 -3 9 2 10 12 1 14 -4
17 -23 13 -32 -6 -30 4 12 58 39 51 59 88 53 95 -7 6 -74 -18 -92 -33 -26 -22
-53 -140 -34 -153 12 -9 -48 -50 -79 -54 -26 -2 -46 -15 -25 -15 7 0 9 -4 6
-10 -3 -5 -15 -10 -26 -10 -10 0 -19 -4 -19 -10 0 -5 -8 -10 -17 -11 -11 0
-13 -3 -5 -6 6 -2 12 -9 12 -14 0 -6 -5 -7 -10 -4 -11 7 -40 -18 -40 -34 0 -6
-8 -11 -18 -11 -10 0 -23 -5 -30 -12 -8 -8 -15 -8 -26 1 -10 8 -16 9 -21 1 -3
-6 -11 -8 -16 -5 -5 3 -6 -1 -3 -9 5 -13 -1 -16 -31 -16 -21 0 -34 4 -30 10
12 20 -5 29 -35 19 -16 -6 -37 -9 -47 -7 -14 3 -11 8 14 21 17 9 39 14 47 11
9 -3 16 -1 16 5 0 18 63 44 103 42 26 -1 39 3 43 14 3 8 10 12 16 9 5 -3 27 7
49 22 28 19 39 33 36 46 -3 10 -1 18 4 18 5 0 9 -7 9 -15 0 -17 16 -20 25 -4
4 6 14 8 22 5 9 -4 11 -2 7 6 -5 8 -2 9 10 5 11 -4 15 -3 11 4 -4 6 0 16 9 22
19 14 26 89 8 95 -8 2 -10 21 -5 63 4 39 2 59 -5 59 -6 0 -12 9 -14 20 -2 12
-7 21 -13 22 -5 0 -26 14 -45 31 -20 18 -36 25 -38 18 -2 -6 -12 -2 -23 11
l-19 23 7 -65 c4 -36 7 -84 6 -107 -1 -47 -29 -92 -55 -93 -10 0 -18 -7 -18
-15 0 -9 -12 -18 -30 -22 -17 -3 -33 -10 -36 -14 -3 -5 -12 -9 -20 -9 -13 0
-13 3 2 17 23 23 3 28 -35 9 -35 -18 -50 -38 -33 -44 7 -2 12 -9 12 -15 0 -8
-4 -7 -12 1 -17 17 -31 15 -24 -4 6 -16 -50 -72 -67 -66 -5 1 -6 -2 -2 -8 12
-19 -5 -47 -27 -46 -12 0 -23 -4 -25 -10 -3 -8 15 -11 59 -9 59 3 61 2 41 -12
-12 -8 -32 -23 -44 -34 -15 -12 -30 -17 -46 -13 -14 4 -34 2 -46 -4 -12 -6
-38 -15 -57 -20 l-35 -9 42 -7 c23 -4 46 -5 51 -2 4 2 14 1 22 -5 10 -6 -1 -9
-36 -9 -54 0 -114 -16 -114 -30 0 -5 31 -6 68 -3 56 5 74 2 96 -13 25 -16 26
-19 12 -30 -9 -6 -25 -10 -35 -7 -9 2 -23 -3 -30 -11 -12 -14 -10 -16 12 -16
14 0 29 5 32 10 5 8 11 8 20 0 7 -6 21 -8 31 -4 11 3 15 2 8 -3 -6 -4 -14 -17
-18 -28 -7 -18 -9 -18 -19 -4 -9 12 -29 15 -82 15 l-70 -1 3 27 c3 25 2 26
-22 15 -22 -10 -24 -14 -11 -23 22 -16 18 -24 -11 -24 -21 0 -24 4 -19 20 5
16 2 20 -14 20 -21 0 -26 -13 -23 -53 2 -14 -3 -17 -17 -12 -11 3 -22 1 -26
-5 -3 -5 2 -10 12 -11 10 -1 3 -5 -15 -9 -18 -4 -43 -5 -55 -2 -20 5 -20 6 -1
13 12 5 -2 8 -40 8 -49 1 -57 -1 -47 -13 10 -12 3 -14 -47 -10 -47 4 -61 2
-65 -10 -5 -12 -22 -14 -94 -10 -88 4 -88 4 -44 -10 24 -8 62 -24 85 -35 23
-10 52 -24 66 -30 22 -9 21 -9 -10 -4 -19 3 -47 12 -62 19 -36 19 -49 18 -41
-3 4 -11 3 -14 -5 -9 -7 4 -12 14 -12 22 0 8 -6 14 -12 14 -7 0 -25 6 -39 14
-25 13 -26 12 -24 -16 2 -32 20 -49 42 -41 8 3 13 -3 13 -17 0 -20 4 -22 30
-17 16 4 32 2 35 -4 4 -5 14 -9 23 -8 10 1 28 0 42 -1 67 -7 -76 -18 -162 -13
-98 6 -153 -2 -114 -16 10 -4 53 -7 96 -6 43 0 76 -3 73 -7 -2 -5 -12 -8 -21
-8 -14 0 -15 -2 -2 -9 8 -6 27 -7 42 -4 17 3 28 1 28 -6 0 -6 -17 -11 -42 -11
-56 0 -40 -13 19 -15 72 -2 83 -4 83 -14 0 -5 -13 -12 -29 -16 -16 -3 -32 -13
-35 -21 -8 -21 -39 -18 -32 4 5 14 -1 17 -31 18 -21 0 -41 7 -48 17 -18 25
-25 20 -12 -8 7 -14 20 -25 29 -25 20 0 35 -20 16 -20 -8 -1 -6 -6 6 -15 18
-13 17 -14 -8 -21 -30 -7 -37 -44 -8 -44 18 -1 52 -22 52 -34 0 -3 -16 -6 -36
-6 -25 0 -34 -4 -30 -12 3 -7 9 -21 12 -30 4 -12 17 -18 38 -18 26 -1 28 -2
13 -11 -9 -6 -27 -7 -40 -3 -19 6 -20 5 -8 -10 7 -9 23 -16 35 -16 21 -1 21
-1 2 -15 -11 -8 -16 -15 -10 -16 22 -1 58 -10 62 -14 3 -3 -6 -9 -19 -15 -24
-11 -24 -11 -1 -6 14 3 25 -1 29 -10 8 -21 -3 -28 -45 -29 -43 0 -55 -24 -20
-40 26 -12 36 -35 14 -35 -9 0 -16 -4 -16 -10 0 -7 193 -10 560 -10 l561 0 25
25 c32 32 41 32 20 0 l-16 -25 270 0 271 0 54 58 c88 96 205 149 350 159 62 5
82 9 65 14 -23 6 -22 7 8 8 23 1 31 -3 26 -10 -5 -9 7 -10 47 -5 29 4 50 4 46
0 -12 -12 43 -34 87 -34 31 0 44 -5 54 -21 9 -14 17 -17 25 -11 7 5 23 5 37 1
24 -7 24 -7 -5 -9 l-30 -1 23 -16 c12 -8 22 -20 22 -25 0 -5 10 -19 23 -30 17
-15 18 -18 5 -14 -10 3 -18 1 -18 -4 0 -6 11 -10 25 -10 31 0 33 -17 3 -22
-25 -4 -37 -28 -14 -28 9 0 16 5 16 11 0 8 4 8 14 0 9 -8 64 -11 172 -9 l159
3 -29 29 c-28 29 -29 29 -44 10 -13 -17 -14 -17 -8 -1 3 10 1 28 -5 39 -16 30
-5 32 29 3 16 -14 35 -25 41 -25 6 0 11 -7 11 -16 0 -8 4 -13 8 -10 5 3 18 -4
30 -14 15 -14 35 -20 71 -20 56 0 67 9 50 41 -9 17 -8 20 3 17 7 -3 14 -17 16
-31 3 -24 7 -27 43 -27 30 0 38 3 33 13 -6 9 -4 9 7 1 13 -11 109 -17 109 -8
0 3 -7 16 -16 30 -9 13 -14 27 -11 31 3 3 14 -11 23 -31 l18 -36 308 0 308 0
0 45 c0 71 27 49 31 -25 1 -18 3 -20 6 -7 4 15 7 16 20 5 32 -26 3 45 -29 74
-26 23 -30 32 -24 60 3 18 8 132 12 253 5 199 16 306 30 292 6 -6 13 -72 13
-130 1 -35 3 -37 21 -27 17 9 19 14 8 33 -17 30 -18 74 -3 87 17 14 30 -6 26
-42 -3 -31 38 -86 50 -66 4 7 11 9 16 5 7 -7 -8 -22 -31 -30 -5 -2 -6 -9 -2
-16 6 -9 11 -9 22 0 11 9 14 8 14 -4 0 -8 7 -28 15 -43 8 -16 15 -36 15 -44 0
-9 9 -16 20 -17 24 -2 25 5 4 28 -9 10 -14 23 -12 29 2 6 20 -12 41 -40 41
-55 58 -88 39 -76 -7 4 -12 1 -12 -8 0 -8 5 -18 10 -21 6 -3 10 -1 10 4 0 16
37 14 47 -2 4 -7 23 -19 41 -26 17 -8 32 -17 32 -22 0 -5 6 -9 13 -9 24 0 200
-97 186 -103 -11 -4 -11 -6 -1 -6 7 -1 10 -5 7 -11 -4 -6 -17 -4 -35 5 -24 12
-28 13 -24 1 3 -9 -6 -15 -28 -20 l-33 -7 33 -21 c30 -19 32 -22 18 -36 -13
-13 -19 -14 -40 -2 -20 10 -28 10 -40 1 -11 -10 -19 -7 -40 14 -14 14 -35 25
-48 25 -18 -1 -15 -5 17 -20 35 -17 37 -19 15 -20 -40 0 -69 11 -64 24 3 7
-12 16 -37 23 -44 12 -73 8 -63 -9 3 -5 12 -7 19 -4 8 3 17 -3 20 -14 5 -17
57 -40 91 -40 6 0 40 -9 74 -20 61 -20 90 -20 1216 -20 l1154 0 0 2750 0 2750
-510 0 c-486 0 -510 -1 -510 -18 0 -10 -9 -28 -20 -39 -15 -17 -18 -30 -13
-60 3 -21 11 -41 17 -45 6 -4 7 -10 3 -14 -3 -4 -13 -1 -22 6 -25 21 -17 3 12
-26 15 -15 23 -25 17 -23 -95 45 -192 79 -267 94 -15 3 -25 10 -22 15 3 6 15
6 30 0 15 -6 27 -6 30 0 4 6 -3 10 -14 10 -28 0 -52 11 -45 21 3 5 2 24 -2 44
l-6 35 -447 0 c-273 0 -440 -4 -432 -9 12 -8 13 -15 4 -34 -9 -18 -8 -28 0
-36 9 -9 8 -11 -5 -6 -10 4 -18 3 -18 -3 0 -5 7 -13 16 -16 13 -5 14 -9 4 -21
-6 -8 -9 -18 -6 -24 4 -5 -2 -12 -13 -16 -10 -3 -21 -14 -24 -24 -7 -26 25
-33 73 -16 36 13 50 11 50 -6 0 -4 -24 -15 -52 -25 -43 -14 -49 -19 -33 -25
19 -7 19 -8 -2 -8 -12 -1 -25 -6 -29 -12 -4 -8 1 -9 16 -4 15 5 20 4 16 -4 -4
-6 -16 -11 -26 -11 -10 0 -22 -5 -25 -10 -4 -6 -25 -20 -48 -32 -128 -65 -198
-181 -196 -328 1 -25 -2 -67 -6 -95 -4 -27 -10 -95 -14 -151 -4 -55 -11 -106
-15 -113 -4 -6 -12 -69 -16 -139 -9 -131 -36 -329 -70 -512 -10 -58 -22 -150
-25 -205 -8 -149 -16 -225 -26 -231 -5 -3 -6 -16 -3 -29 3 -13 1 -32 -5 -44
-11 -19 -13 -19 -54 -5 -148 51 -274 150 -297 233 -11 42 -10 73 21 446 14
171 36 457 37 475 1 8 4 63 7 121 l6 107 -32 26 c-25 21 -33 36 -35 69 -3 46
10 70 35 63 37 -11 47 15 58 149 5 72 6 159 2 195 -5 42 -4 67 3 71 6 4 5 9
-3 12 -12 4 -11 7 1 16 13 10 13 12 0 21 -9 6 -11 13 -5 18 6 4 11 12 12 17 1
6 4 26 8 45 4 23 1 41 -8 54 -13 18 -14 18 -54 -1 -50 -25 -134 -19 -118 7 3
6 3 19 0 30 -6 20 -17 20 -996 20 l-989 0 0 -39 c0 -61 28 -192 45 -211 8 -9
15 -20 15 -23 0 -13 65 -66 80 -67 28 0 60 -30 60 -56 0 -14 -4 -23 -9 -20 -5
4 -7 -3 -4 -13 6 -24 -13 -61 -32 -61 -7 0 -15 -5 -17 -12 -3 -7 -9 -8 -18 -3
-10 6 -9 11 6 22 17 14 16 14 -16 8 -19 -3 -43 -9 -52 -11 -13 -4 -16 -1 -12
10 6 15 -61 165 -80 178 -5 3 -13 28 -17 55 -4 26 -13 66 -19 88 -7 22 -15 66
-17 98 l-5 57 -981 -2 c-540 -1 -1011 -4 -1047 -7z m1460 -1451 c0 -5 18 -10
40 -10 27 0 40 -4 40 -14 0 -7 10 -16 23 -20 18 -5 20 -8 7 -16 -8 -5 -10 -10
-4 -10 13 0 54 -34 54 -44 0 -4 -10 -4 -22 0 -21 6 -21 6 -5 -10 9 -10 21 -15
27 -11 6 3 7 -1 4 -10 -5 -12 -10 -13 -17 -6 -6 6 -17 11 -25 11 -7 0 -20 7
-28 15 -18 17 -34 20 -34 5 0 -5 5 -10 10 -10 6 0 10 -3 10 -7 0 -5 -14 -8
-31 -9 -17 -1 -25 2 -19 6 22 14 -26 18 -51 4 -29 -16 -53 -18 -44 -4 3 6 1
10 -4 10 -6 0 -11 16 -11 35 0 19 5 35 10 35 6 0 10 3 9 8 -3 18 15 51 30 55
27 8 31 7 31 -3z m1218 -952 c26 -28 45 -38 67 -38 72 0 106 -34 46 -46 -20
-4 -28 -11 -24 -20 3 -8 0 -14 -6 -14 -6 0 -11 -7 -11 -15 0 -11 -12 -15 -44
-15 -24 0 -46 -5 -48 -11 -5 -15 -56 -3 -87 20 -20 15 -23 27 -25 89 l-1 71
45 43 45 43 3 -35 c2 -24 15 -47 40 -72z m-1693 -368 c3 -5 23 -10 43 -10 20
0 50 -7 66 -15 15 -8 34 -15 42 -15 7 0 17 -6 21 -13 4 -7 24 -19 43 -27 41
-16 72 -39 65 -51 -3 -4 0 -11 6 -15 8 -4 7 -9 -2 -15 -22 -14 -49 -10 -49 6
0 22 -28 18 -42 -5 -7 -11 -18 -20 -25 -20 -7 0 -13 -7 -13 -15 0 -9 6 -12 15
-9 9 4 15 0 15 -10 0 -18 -15 -22 -25 -6 -3 6 -15 10 -26 10 -10 0 -28 9 -38
19 -11 11 -21 17 -24 15 -4 -5 -122 26 -159 41 -10 4 -18 3 -18 -3 0 -6 6 -13
13 -15 8 -4 7 -6 -3 -6 -21 -1 -45 16 -45 31 0 7 -10 15 -22 18 -17 4 -20 9
-13 20 9 13 10 13 10 0 1 -20 50 35 50 56 0 14 12 18 39 14 9 -1 12 4 8 14 -5
13 1 16 28 16 18 0 37 -4 40 -10z m5858 -160 c33 -7 75 -19 95 -28 21 -9 39
-16 42 -16 3 -1 33 -20 68 -42 51 -33 59 -43 45 -48 -17 -7 -17 -8 0 -17 9 -6
15 -14 12 -20 -4 -5 -1 -9 4 -9 6 0 11 -4 11 -10 0 -5 -14 -10 -31 -10 -29 0
-31 2 -24 27 l6 27 -21 -19 c-22 -19 -22 -19 -36 0 -8 10 -14 22 -14 27 0 4
-4 8 -10 8 -5 0 -10 -11 -10 -25 0 -15 6 -25 14 -25 10 0 14 -9 12 -27 -4 -35
-19 -40 -45 -14 -12 12 -30 21 -41 21 -11 0 -20 5 -20 10 0 6 -17 8 -42 5 -32
-3 -35 -2 -13 3 33 8 27 16 -22 27 -26 5 -39 2 -60 -15 l-28 -22 -5 79 c-4 57
-2 80 7 86 7 4 13 17 13 28 0 15 5 19 18 15 9 -2 43 -10 75 -16z m-3286 -417
c4 -10 1 -19 -6 -21 -7 -2 -25 -17 -39 -33 -15 -17 -32 -27 -40 -24 -8 3 -1
-7 16 -23 16 -15 33 -42 37 -60 3 -18 11 -30 16 -26 5 3 9 2 9 -3 0 -4 20 -19
44 -31 43 -23 58 -26 176 -39 51 -6 53 -7 22 -14 -18 -3 -49 -3 -68 1 -20 5
-37 4 -40 -2 -3 -5 -12 -4 -20 3 -11 9 -19 8 -34 -6 -15 -14 -30 -16 -67 -13
-27 3 -56 9 -65 13 -13 5 -15 2 -12 -13 8 -28 -30 -22 -54 9 -39 50 -34 180 7
208 12 7 21 19 21 26 0 12 67 65 83 65 4 0 11 -8 14 -17z m-337 -331 c0 -14 8
-18 33 -19 17 0 39 -2 47 -4 9 -3 16 4 18 19 2 12 8 22 13 22 5 0 14 -10 18
-22 8 -20 10 -20 16 -7 4 11 17 17 39 16 29 -1 32 -3 28 -26 -3 -20 -2 -23 7
-15 19 17 61 5 61 -17 0 -11 8 -23 18 -26 28 -11 33 -28 9 -34 -12 -3 -21 -11
-19 -17 1 -7 -3 -12 -10 -12 -9 0 -8 -3 1 -12 11 -10 14 -10 18 -1 3 9 10 10
24 3 36 -20 20 -31 -36 -27 -64 5 -73 -2 -73 -61 -1 -43 0 -43 29 -37 18 4 29
3 29 -4 0 -6 -6 -11 -14 -11 -9 0 -13 -11 -12 -32 1 -32 0 -33 -41 -36 -24 -2
-43 -7 -43 -13 0 -5 -5 -9 -12 -9 -9 0 -9 3 0 12 21 21 13 28 -28 28 -27 0
-40 -4 -40 -14 0 -16 -66 -50 -79 -41 -15 9 -25 -15 -12 -28 9 -9 17 -8 31 1
15 9 26 10 40 2 25 -13 26 -40 2 -40 -10 0 -27 -6 -37 -14 -24 -17 -96 -1 -88
20 3 8 1 14 -4 14 -5 0 -14 -13 -20 -30 -12 -31 -33 -41 -33 -15 0 26 -30 30
-46 6 -18 -24 -31 -20 -44 15 -11 28 -54 48 -86 40 -33 -9 -57 3 -43 20 9 11
8 14 -2 14 -22 0 -71 50 -65 66 3 9 -1 14 -12 14 -15 0 -17 8 -16 45 1 25 7
52 14 60 14 17 4 38 -16 31 -20 -7 -27 10 -14 35 13 24 10 29 -19 32 -17 1
-19 6 -14 27 12 53 24 53 48 3 18 -40 53 -79 61 -70 3 3 -2 21 -10 41 -9 21
-11 36 -5 36 6 0 7 9 4 21 -9 27 15 21 30 -7 10 -19 45 -22 45 -3 0 18 17 8
29 -17 9 -21 14 -24 26 -14 12 10 15 9 15 -4 0 -9 5 -16 10 -16 14 0 -5 36
-22 44 -7 3 -2 3 12 0 31 -8 31 -7 33 -33 3 -47 67 -2 67 48 0 36 19 50 35 28
25 -35 96 -10 81 28 -3 9 0 15 9 15 8 0 15 -8 15 -18z m-62 -1427 c4 -4 -7 -5
-25 -2 -26 5 -31 3 -26 -8 3 -11 -2 -15 -18 -15 -35 0 -15 -12 28 -15 21 -2
53 -7 71 -10 39 -9 42 4 6 26 l-27 16 32 5 c24 3 31 1 27 -9 -3 -7 -1 -13 5
-13 6 0 7 -4 4 -10 -3 -5 1 -10 10 -10 9 0 13 5 10 10 -7 12 18 14 29 3 4 -5
11 -8 14 -8 20 -1 121 -48 117 -55 -3 -5 0 -12 6 -16 8 -4 9 -3 5 4 -10 16 -3
15 37 -4 26 -13 36 -25 45 -60 16 -58 15 -88 -1 -54 -21 45 -51 68 -76 58 -16
-5 -32 -3 -51 8 -23 14 -30 15 -42 3 -13 -12 -12 -16 3 -33 14 -15 16 -23 8
-33 -8 -9 -8 -13 0 -13 6 0 11 5 11 11 0 6 6 9 14 6 10 -4 12 0 8 16 -5 21 -4
21 15 5 11 -10 25 -18 32 -18 6 0 14 -7 17 -15 4 -8 11 -15 17 -15 6 0 19 -7
29 -17 11 -9 18 -11 18 -5 0 7 4 12 8 12 5 0 9 -13 9 -30 0 -34 -19 -40 -39
-12 -19 27 -39 37 -31 16 5 -12 3 -15 -6 -9 -9 5 -12 2 -9 -11 2 -11 9 -18 14
-17 6 1 11 -3 11 -10 0 -7 4 -21 8 -32 5 -14 -2 -11 -24 13 -31 31 -48 42 -36
23 3 -5 1 -12 -5 -16 -5 -3 -10 -2 -10 4 0 6 -16 18 -35 27 -19 9 -35 23 -35
31 0 10 -6 13 -16 9 -9 -3 -25 1 -37 9 -24 17 -41 20 -32 5 3 -6 -1 -7 -9 -4
-9 3 -14 10 -11 14 3 4 -7 13 -23 18 -15 5 -35 13 -44 17 -11 4 -18 3 -18 -4
0 -7 8 -15 18 -18 9 -4 27 -14 39 -23 17 -13 19 -20 10 -29 -10 -10 1 -16 26
-12 4 0 7 -4 7 -9 0 -13 -16 -13 -41 1 -16 8 -18 13 -8 25 8 10 8 14 0 14 -18
0 -26 -5 -23 -14 2 -5 -5 -5 -15 -2 -10 4 -5 -5 13 -21 16 -15 23 -23 15 -16
-15 11 -98 43 -113 43 -4 0 -5 -7 -2 -15 4 -8 1 -15 -5 -15 -6 0 -11 4 -11 10
0 5 -6 7 -13 4 -8 -3 -19 1 -25 8 -8 11 -2 14 35 14 45 2 81 23 69 42 -8 13
-56 22 -56 11 0 -18 -16 -8 -17 10 -1 17 3 19 33 14 27 -4 34 -2 34 10 0 11
-6 14 -15 11 -8 -4 -22 -1 -30 6 -8 6 -18 9 -23 6 -5 -3 -18 2 -28 10 -16 13
-16 15 -2 10 10 -3 20 -1 23 4 4 6 1 10 -6 10 -8 0 -7 5 2 17 12 15 12 16 -6
8 -25 -10 -39 -10 -90 -1 -37 7 -39 6 -21 -8 23 -18 10 -21 -29 -6 -14 5 -23
14 -20 20 3 5 1 10 -6 10 -7 0 -10 3 -7 6 4 3 15 1 25 -4 21 -11 46 -5 37 9
-3 5 0 9 5 9 6 0 11 -4 11 -10 0 -5 5 -10 10 -10 6 0 10 8 10 18 0 29 34 54
63 47 35 -9 70 3 63 22 -5 12 1 14 34 10 23 -2 44 -8 48 -12z"/>
<path d="M2801 153 c-6 -10 -11 -13 -11 -6 0 7 -6 10 -14 7 -8 -3 -12 -12 -10
-19 4 -10 -5 -13 -40 -12 -37 2 -49 -2 -61 -21 -9 -12 -23 -22 -32 -22 -9 0
-14 -3 -10 -6 3 -4 0 -22 -8 -40 l-14 -34 315 0 315 0 -16 30 c-21 40 -86 87
-149 106 -52 15 -183 20 -230 8 -21 -5 -25 -3 -20 10 8 21 -2 20 -15 -1z"/>
</g>
</svg>
