<?xml version="1.0" standalone="no"?>
<!DOCTYPE svg PUBLIC "-//W3C//DTD SVG 20010904//EN"
 "http://www.w3.org/TR/2001/REC-SVG-20010904/DTD/svg10.dtd">
<svg version="1.0" xmlns="http://www.w3.org/2000/svg"
 width="1024.000000pt" height="585.000000pt" viewBox="0 0 1024.000000 585.000000"
 preserveAspectRatio="xMidYMid meet">
<metadata>
Created by potrace 1.16, written by Peter Selinger 2001-2019
</metadata>
<g transform="translate(0.000000,585.000000) scale(0.100000,-0.100000)"
fill="#000000" stroke="none">
<path d="M360 5833 c1 -10 7 -36 15 -58 8 -22 10 -44 6 -50 -16 -18 -15 -119
1 -175 49 -173 95 -458 90 -560 -1 -19 -1 -66 0 -105 0 -38 1 -87 0 -107 -1
-59 -1 -63 5 -228 3 -85 6 -172 6 -192 1 -21 5 -38 9 -38 5 0 6 -11 2 -25 -3
-14 -1 -32 5 -39 7 -9 10 -28 6 -48 -9 -54 11 -442 24 -446 15 -5 14 -47 -2
-60 -6 -5 -28 -13 -47 -17 -19 -4 -40 -11 -46 -17 -7 -5 -16 -8 -20 -6 -14 3
-346 -12 -381 -19 -28 -4 -33 -10 -33 -32 l0 -26 112 2 c62 2 183 9 268 16
307 24 462 9 476 -48 8 -30 66 -50 189 -65 50 -6 113 -17 140 -25 85 -24 159
-31 428 -39 81 -3 152 -8 159 -12 6 -4 8 -3 5 3 -4 6 7 13 25 17 19 4 34 2 39
-5 4 -8 8 -8 10 -1 2 6 21 12 42 14 34 2 37 4 21 15 -16 12 -15 13 11 9 76
-12 166 -16 161 -7 -7 11 13 14 246 36 132 13 180 21 230 42 l63 26 160 -13
c88 -7 354 -15 590 -18 450 -5 628 3 909 39 135 17 157 17 240 4 208 -33 353
-40 826 -40 477 0 628 8 800 40 190 36 201 37 309 26 58 -6 250 -16 425 -22
355 -13 820 -1 1103 27 125 13 176 14 243 5 347 -44 1265 -37 1353 11 25 13
16 32 -19 39 -16 4 19 7 78 8 59 0 109 -3 112 -8 9 -13 112 -30 251 -40 138
-10 164 -10 208 3 23 7 27 13 27 47 0 37 -2 39 -31 39 -42 0 -69 17 -69 43 0
45 -14 52 -138 67 -145 18 -158 27 -104 70 26 20 28 27 24 71 -2 30 0 49 6 49
7 0 8 14 5 36 -4 21 -2 39 5 43 7 4 7 22 1 56 -11 57 -5 83 18 81 18 -1 27 33
10 40 -14 5 -21 122 -8 138 4 6 9 42 10 81 1 38 6 74 11 79 4 4 6 14 4 21 -3
7 -1 16 5 19 6 4 6 18 0 39 -6 21 -6 33 1 35 5 2 10 12 10 23 0 10 4 19 9 19
4 0 3 19 -3 42 -8 31 -8 42 1 45 9 3 9 12 2 29 -6 16 -5 32 1 44 6 11 7 28 2
42 -12 33 -4 58 19 58 29 0 23 14 -18 43 -22 15 -31 27 -22 27 22 0 42 46 30
69 -7 12 -6 22 0 28 8 8 7 17 -1 32 -6 12 -7 27 -3 34 4 6 9 23 10 37 2 14 5
40 6 59 2 19 10 39 18 45 8 6 15 29 16 51 2 82 13 231 19 258 3 16 1 27 -5 27
-20 0 -11 20 13 31 l24 11 -20 36 c-14 26 -16 37 -7 42 6 5 9 15 6 24 -6 14
-49 16 -410 16 -329 0 -407 -3 -422 -14 -17 -12 -17 -16 -6 -30 8 -9 11 -19 8
-23 -4 -3 8 -19 25 -35 25 -24 30 -33 21 -46 -5 -9 -21 -17 -34 -18 -13 0 -33
-4 -45 -7 -11 -4 -41 -3 -66 2 -26 4 -52 5 -59 0 -8 -4 -19 -3 -25 2 -8 7 -15
6 -19 -2 -13 -19 -25 12 -25 63 0 46 1 47 35 54 19 3 39 12 46 20 6 8 22 14
35 14 12 0 25 4 29 10 3 5 -210 9 -575 10 l-580 0 0 -24 c0 -13 7 -29 15 -36
9 -8 12 -16 6 -19 -5 -4 -6 -24 -1 -51 4 -24 5 -67 0 -94 -8 -51 3 -96 24 -96
6 0 3 -5 -6 -11 -24 -14 -23 -39 2 -39 11 0 20 -6 20 -13 0 -15 -37 -50 -65
-60 -16 -7 -14 -10 16 -26 30 -16 34 -24 37 -62 2 -25 10 -47 18 -52 8 -4 14
-20 14 -35 0 -15 2 -118 5 -229 3 -132 2 -204 -5 -208 -14 -8 -13 -45 1 -45 6
0 9 -7 6 -15 -4 -8 -2 -17 3 -20 6 -4 10 -21 10 -38 0 -26 -2 -29 -11 -17 -10
13 -10 13 -6 0 21 -68 29 -132 19 -142 -15 -15 -16 -32 -2 -23 12 7 14 -50 12
-249 -1 -86 2 -144 9 -152 7 -9 7 -18 -2 -32 -10 -16 -10 -24 3 -45 13 -18 15
-33 8 -62 -5 -24 -5 -46 1 -57 9 -16 7 -83 -2 -92 -14 -14 -148 -49 -237 -62
-148 -22 -707 -30 -956 -15 -198 13 -374 35 -390 51 -4 4 -15 6 -22 3 -8 -3
-14 -1 -14 5 0 5 -15 13 -32 17 -23 5 -28 9 -15 12 9 3 15 9 12 14 -4 5 8 9
25 9 30 0 30 0 24 42 -6 36 -5 40 9 35 10 -4 17 -2 17 3 0 6 -6 10 -14 10 -23
0 -26 27 -6 68 16 32 26 41 55 46 47 9 41 25 -21 56 l-49 25 50 5 c40 4 50 9
53 25 2 13 0 16 -5 8 -6 -8 -14 -8 -32 1 -19 11 -21 14 -7 19 20 8 21 47 1 47
-27 0 -16 20 13 21 23 2 24 2 5 6 -23 4 -32 23 -12 23 6 0 8 7 5 16 -4 11 1
18 15 21 21 6 21 7 3 20 -16 12 -17 15 -4 23 13 9 13 11 0 20 -14 9 -13 11 9
14 13 2 26 16 15 16 -5 0 -8 18 -6 40 3 32 1 40 -13 40 -9 0 -13 5 -10 10 3 6
17 10 31 10 20 0 24 5 24 29 0 23 5 30 21 33 28 4 44 30 34 54 -7 18 -8 18
-12 2 -5 -22 -19 -23 -27 -2 -9 23 -8 24 22 24 l27 0 -25 20 c-20 15 -23 23
-14 37 6 11 7 35 3 58 -4 22 -4 44 0 48 4 4 27 4 49 -2 56 -12 54 2 -3 17 -25
6 -53 20 -63 30 -10 10 -24 16 -30 14 -7 -2 -12 1 -12 6 0 5 18 12 40 16 35 6
40 9 40 34 0 21 -2 24 -10 12 -8 -13 -11 -13 -26 2 -16 16 -16 18 0 43 11 17
14 31 8 37 -5 5 -7 31 -4 58 3 32 0 55 -8 65 -10 11 -10 19 -2 27 6 6 8 17 5
24 -3 8 1 14 9 14 8 0 18 16 24 37 7 30 15 38 42 45 27 7 32 13 32 37 0 16 -6
32 -13 34 -6 3 0 6 16 6 27 1 39 21 12 21 -9 0 -15 9 -15 25 0 14 5 25 10 25
7 0 10 20 9 50 -2 28 -6 50 -11 50 -4 0 -8 6 -8 14 0 15 64 31 82 20 7 -4 8
-3 4 4 -4 7 -13 12 -19 12 -30 0 -86 22 -84 33 1 7 -8 11 -23 10 -24 -2 -24
-2 5 14 41 21 42 23 25 34 -11 7 -6 8 15 3 17 -3 26 -2 20 3 -5 4 -18 25 -27
46 l-18 38 27 10 c21 8 24 12 13 22 -10 9 -13 9 -17 0 -3 -7 -19 -13 -36 -12
-18 0 -25 3 -17 6 43 14 44 16 15 23 l-30 8 33 1 c20 1 31 5 27 11 -4 7 -136
10 -383 9 -207 -1 -367 -4 -354 -6 37 -7 25 -23 -17 -23 -22 0 -43 -4 -46 -10
-3 -5 -21 -10 -38 -10 -18 0 -39 -5 -47 -11 -12 -8 -11 -9 5 -5 23 6 88 9 127
7 23 -1 26 -4 22 -28 -3 -16 -7 -36 -10 -45 -8 -28 5 -59 24 -56 11 2 17 -4
17 -17 0 -13 -7 -20 -18 -20 -10 0 -25 -9 -33 -19 -12 -17 -12 -22 2 -38 9 -9
21 -15 26 -11 6 3 9 -12 7 -41 -2 -25 0 -48 6 -51 6 -3 5 -8 -3 -11 -10 -5 -8
-12 9 -30 16 -17 20 -27 12 -35 -6 -6 -8 -20 -5 -31 4 -15 11 -19 33 -16 16 3
29 1 29 -4 0 -4 -9 -8 -19 -8 -17 0 -32 -19 -36 -45 -2 -15 16 -36 26 -29 5 3
9 0 9 -5 0 -6 -7 -11 -15 -11 -8 0 -15 -5 -15 -11 0 -6 6 -9 14 -6 23 9 26 -4
10 -35 -12 -24 -13 -32 -3 -45 11 -12 10 -17 -4 -28 -32 -23 -21 -38 23 -31
33 5 38 4 33 -9 -3 -9 -19 -19 -35 -22 l-30 -6 25 -23 c22 -20 24 -30 23 -93
-2 -52 -7 -75 -21 -91 -10 -11 -14 -20 -9 -20 5 0 2 -5 -6 -10 -10 -6 -11 -10
-3 -10 9 0 12 -15 11 -47 -2 -29 2 -48 10 -51 7 -2 10 -13 6 -28 -6 -22 -3
-24 25 -24 27 0 30 -3 23 -17 -5 -10 -12 -35 -16 -55 -4 -21 -11 -38 -16 -38
-6 0 -10 -5 -10 -11 0 -5 4 -8 9 -4 5 3 13 0 16 -6 4 -5 13 -8 20 -6 10 5 45
-25 45 -37 0 -3 -18 -3 -40 -1 -21 2 -42 0 -46 -6 -9 -15 3 -23 34 -24 31 0
33 -18 2 -23 -19 -3 -29 -22 -11 -22 17 0 21 -33 6 -50 -18 -19 -20 -34 -4
-24 6 3 15 0 20 -7 8 -12 10 -12 18 0 14 22 31 3 31 -35 0 -19 5 -34 10 -34 6
0 8 -15 4 -40 -5 -28 -3 -40 5 -40 7 0 9 -5 6 -10 -5 -8 -11 -8 -20 0 -18 15
-29 -4 -17 -27 5 -10 7 -24 5 -30 -3 -7 2 -13 11 -13 20 0 21 -33 2 -63 -17
-27 -10 -97 10 -97 16 0 19 -16 5 -24 -12 -8 -7 -64 7 -78 6 -6 22 -10 36 -10
14 0 26 -5 26 -10 0 -5 4 -7 9 -4 5 4 7 -3 4 -15 -4 -15 -8 -17 -14 -8 -10 16
-39 -6 -39 -30 0 -21 -63 -46 -170 -67 -62 -12 -165 -18 -383 -21 -296 -6
-299 -5 -344 17 -25 13 -64 24 -87 26 -77 6 -126 16 -126 25 0 5 5 9 10 9 6 0
10 9 10 21 0 15 5 19 18 15 12 -4 21 3 31 26 13 28 12 32 -5 46 -15 11 -15 13
-2 9 19 -7 38 31 42 87 4 41 -6 49 -65 60 -21 4 -42 13 -49 21 -7 8 -16 13
-20 10 -5 -3 -11 -1 -15 5 -3 5 3 11 14 11 12 1 24 2 29 4 4 1 28 7 54 14 26
8 45 17 43 22 -3 4 -13 5 -22 2 -14 -5 -14 -3 1 20 17 25 17 25 -11 22 -15 -2
-33 1 -40 7 -7 5 -17 7 -23 3 -6 -4 -10 5 -10 24 0 16 6 31 12 34 9 2 5 12
-12 30 -25 26 -47 37 -35 16 4 -6 -3 -5 -14 3 -21 12 -19 13 21 19 24 3 35 7
25 7 -10 1 -15 7 -12 12 4 6 11 8 16 5 5 -4 9 -1 9 4 0 6 -10 11 -22 12 -22 1
-22 1 2 9 14 4 20 8 14 9 -19 2 -27 69 -10 86 8 8 16 19 18 25 2 6 21 12 43
14 22 3 54 9 70 14 25 9 26 10 8 11 -16 1 -21 5 -16 17 4 10 -1 17 -16 21 -24
6 -28 21 -6 29 8 4 15 12 15 20 0 10 -7 13 -25 8 -19 -5 -25 -2 -25 11 0 9 4
14 9 11 4 -3 17 4 27 15 16 17 16 22 4 29 -8 6 -10 10 -5 10 15 0 12 73 -4 86
-12 9 -11 12 4 18 14 5 15 9 5 21 -7 8 -20 15 -30 15 -25 0 -80 21 -80 30 0 4
22 11 49 15 50 7 78 25 67 44 -3 5 0 11 6 14 7 2 -9 5 -37 6 -73 3 -73 3 -67
23 2 10 -1 18 -8 18 -9 0 -9 4 -2 13 5 6 6 21 2 32 -3 10 -1 30 6 43 10 21 10
29 -2 47 -10 16 -12 25 -5 30 6 3 11 1 11 -6 0 -7 3 -10 6 -7 3 3 2 23 -2 44
-7 36 -8 37 -15 14 -6 -20 -7 -17 -8 18 -1 31 3 42 14 42 8 0 15 6 15 13 0 9
3 8 9 -2 7 -11 10 -11 17 2 5 8 22 14 39 13 25 -1 30 3 33 24 4 37 3 89 -1
145 -2 28 0 55 5 62 6 7 2 13 -11 18 -27 8 -26 19 2 33 22 10 22 11 -5 11 -16
1 -28 5 -28 9 0 5 15 7 33 5 17 -2 25 0 17 3 -8 3 -24 9 -35 14 -11 5 -31 10
-45 12 -14 2 -23 6 -20 9 3 3 -1 13 -9 22 -12 15 -10 17 25 18 22 1 50 5 64 9
l25 8 -24 1 c-18 1 -21 4 -12 14 9 11 5 14 -19 15 -16 0 -37 5 -47 10 -14 8
-9 12 27 22 94 24 97 28 20 26 -63 -1 -76 1 -76 15 0 11 7 14 23 11 29 -5 29
2 1 28 -12 11 -19 20 -15 20 4 0 3 9 -3 19 -9 17 -6 20 18 24 15 2 -180 5
-434 6 -499 1 -498 1 -487 -51 3 -16 9 -28 14 -28 18 0 8 -18 -12 -23 -12 -3
-18 -10 -15 -16 4 -6 13 -8 21 -4 16 5 22 -27 8 -41 -4 -4 -6 -23 -4 -42 1
-18 -1 -34 -6 -34 -11 0 -10 -69 2 -78 13 -9 13 -135 0 -144 -6 -5 -5 -11 4
-17 9 -6 12 -18 7 -37 -5 -21 -4 -25 3 -14 13 19 17 6 26 -85 13 -138 14 -178
3 -198 -9 -17 -8 -19 6 -14 12 5 16 0 16 -21 0 -16 -5 -33 -12 -40 -9 -9 -9
-12 0 -12 8 0 12 -22 12 -70 0 -55 -3 -68 -14 -64 -8 3 -17 1 -21 -5 -3 -7 0
-8 9 -5 9 3 16 1 16 -6 0 -6 5 -8 10 -5 6 3 10 -1 10 -9 0 -9 -7 -16 -16 -16
-10 0 -14 -7 -12 -17 2 -10 10 -17 17 -15 9 2 11 -6 6 -30 -4 -18 -11 -38 -16
-44 -6 -7 -4 -16 5 -23 11 -9 12 -19 3 -46 -8 -27 -7 -41 5 -66 12 -25 14 -39
6 -62 -7 -19 -7 -31 -1 -36 12 -8 12 -5 15 -178 2 -80 7 -139 12 -135 5 3 6
-12 3 -34 -4 -21 -3 -45 2 -52 4 -7 4 -36 0 -65 -6 -48 10 -180 25 -194 3 -3
1 -14 -4 -23 -32 -59 -316 -87 -855 -83 -510 4 -741 27 -675 68 8 5 7 11 -1
21 -9 11 -8 14 4 14 8 0 17 7 21 15 3 8 12 15 21 15 11 0 15 10 15 35 0 28 4
35 20 35 24 0 27 31 6 53 -17 17 -9 32 22 41 12 4 22 11 22 15 0 12 -33 38
-55 45 -11 3 4 4 33 2 40 -2 50 0 42 9 -6 7 -31 16 -55 19 -25 4 -48 12 -51
18 -5 8 -1 9 10 5 11 -4 27 0 42 12 23 18 24 20 7 31 -11 7 -14 13 -7 16 6 3
20 12 30 20 17 14 15 14 -26 8 -40 -6 -43 -5 -31 10 7 9 11 29 9 46 -3 16 -1
30 4 30 4 0 8 10 8 23 0 13 4 27 9 32 17 19 0 76 -25 85 -13 5 -24 14 -24 19
0 6 6 8 13 6 24 -9 41 13 42 57 1 48 18 59 23 15 3 -24 6 -26 18 -16 12 10 12
14 2 20 -9 6 -8 9 6 9 16 0 17 3 8 12 -19 19 -14 42 13 68 31 29 34 64 5 55
-16 -5 -20 -2 -20 19 0 27 16 44 23 24 2 -7 7 -10 11 -7 9 8 -4 40 -14 34 -4
-3 -11 3 -14 12 -4 10 -1 20 9 25 19 11 20 28 0 28 -8 0 -15 6 -15 13 0 13 26
16 45 6 6 -3 20 -1 32 6 19 10 15 13 -45 28 -37 10 -76 24 -86 32 -19 14 -19
15 6 15 24 0 26 3 22 33 -2 17 -9 56 -16 85 -11 52 -5 79 12 52 8 -13 10 -12
10 2 0 9 -5 20 -11 24 -8 4 -4 13 12 25 l24 18 -24 9 c-21 7 -22 10 -7 15 10
4 22 5 27 1 15 -9 10 5 -12 36 -28 37 -20 56 29 70 22 5 43 18 47 28 5 9 9 53
10 97 1 44 0 63 -2 43 -2 -21 -8 -38 -13 -38 -5 0 -7 13 -4 29 4 17 1 32 -6
36 -8 5 -4 14 16 30 27 21 28 24 13 42 -20 24 -14 51 14 55 17 2 13 7 -21 23
-43 20 -54 35 -27 35 8 0 15 5 15 10 0 6 3 9 8 8 4 -2 7 1 7 7 0 5 -7 8 -17 7
-9 -2 -19 2 -23 8 -3 5 -3 10 2 10 4 0 8 23 8 50 0 28 -4 50 -10 50 -5 0 -3 5
5 10 13 9 13 11 0 20 -13 9 -13 11 0 20 39 26 -28 30 -519 30 -479 0 -503 -1
-489 -17 20 -25 40 -74 32 -82 -4 -3 -9 0 -11 7 -3 6 -8 12 -12 12 -11 0 -6
-83 6 -104 7 -13 6 -27 -5 -50 -20 -40 -26 -44 -89 -52 -35 -4 -53 -11 -53
-20 0 -8 7 -14 15 -14 21 0 21 -68 0 -76 -14 -6 -13 -8 2 -19 15 -12 15 -13
-5 -19 -30 -10 -28 -24 4 -32 26 -7 26 -7 -11 -24 -22 -10 -33 -20 -26 -24 6
-4 15 -5 19 -2 4 2 14 0 22 -5 13 -8 13 -10 0 -19 -8 -5 -26 -10 -40 -11 -18
-1 -13 -4 18 -12 24 -5 42 -16 42 -23 0 -8 -4 -14 -10 -14 -5 0 -10 -5 -10
-11 0 -7 21 -10 58 -9 73 3 80 2 62 -10 -13 -8 -13 -10 0 -10 10 0 9 -4 -5
-14 -19 -12 -42 -19 -122 -33 -18 -3 -33 -10 -33 -17 0 -6 -5 -4 -10 4 -5 8
-10 10 -10 5 0 -6 -17 -9 -40 -7 -43 4 -54 18 -17 24 12 2 -4 4 -36 4 -31 1
-60 4 -63 7 -12 12 6 37 26 37 22 0 26 10 9 27 -9 9 -5 14 15 19 14 3 26 11
26 16 0 14 -71 2 -81 -13 -4 -7 -14 -9 -25 -4 -18 7 -18 8 -2 14 15 5 12 9
-15 21 -30 14 -30 15 -9 18 19 3 23 8 18 27 -6 23 15 41 35 29 5 -3 9 2 9 10
0 8 -5 18 -11 21 -6 4 -9 20 -7 36 2 18 -3 33 -12 39 -11 7 -8 10 12 15 35 9
26 30 -14 33 -42 3 -50 12 -11 12 17 0 41 8 53 18 l23 19 -21 21 c-20 20 -20
23 -7 57 13 30 13 35 1 35 -8 0 -16 13 -18 31 -4 26 -1 32 20 40 24 9 24 10 6
24 -15 10 -16 16 -7 26 6 6 9 18 6 25 -4 12 -121 14 -714 14 -669 0 -709 -1
-709 -17z m8745 -312 c6 -4 30 -14 55 -21 58 -18 120 -48 120 -59 0 -5 14 -14
31 -21 17 -7 26 -16 21 -19 -17 -12 -19 -38 -12 -168 5 -103 10 -137 23 -151
22 -24 21 -32 -3 -32 -12 0 -17 -5 -14 -14 4 -9 -11 -16 -53 -24 -80 -16 -202
-21 -209 -10 -3 5 -17 14 -31 19 -25 9 -25 10 -7 24 17 13 18 14 2 15 -21 0
-24 16 -5 24 10 5 10 7 0 12 -18 8 -16 24 2 24 9 0 15 9 15 22 0 21 0 21 -14
3 -13 -18 -15 -16 -21 28 -7 44 2 79 12 50 7 -20 23 -15 23 8 0 11 -4 17 -10
14 -6 -4 -10 5 -10 19 0 14 5 26 12 26 6 0 4 6 -7 13 -12 10 -14 16 -7 21 7 4
17 4 22 1 6 -3 10 -1 10 5 0 6 -11 15 -25 20 -14 5 -28 16 -31 24 -8 20 13 56
33 56 11 0 14 5 8 23 -4 12 -8 34 -8 49 0 19 -6 28 -21 31 -12 2 4 2 34 0 30
-3 60 -8 65 -12z m-7060 -406 c33 -7 74 -18 90 -24 27 -9 24 -10 -20 -6 l-50
4 44 -10 44 -11 -27 -18 -27 -17 23 -8 23 -7 -23 -6 c-35 -10 -27 -26 15 -32
37 -5 38 -5 14 -19 -13 -7 -21 -8 -17 -2 15 23 -28 10 -54 -17 -22 -24 -39
-30 -117 -40 -90 -12 -187 -7 -177 9 3 5 15 9 28 9 12 0 26 3 30 8 4 4 16 7
27 7 28 0 23 20 -6 20 -14 1 -25 -3 -25 -7 0 -12 -68 -10 -75 2 -3 6 1 10 10
10 9 0 13 4 10 10 -3 5 6 12 21 16 l27 7 -23 17 -23 17 24 18 24 17 -30 -6
-30 -5 28 13 c29 13 26 26 -6 26 -36 0 -7 15 51 26 79 16 127 16 197 -1z m81
-263 c-1 -12 6 -17 22 -16 43 1 15 -21 -54 -43 -38 -12 -77 -22 -86 -22 -10
-1 -18 -8 -18 -16 0 -8 -4 -15 -10 -15 -5 0 -10 7 -10 15 0 8 -4 15 -10 15
-17 0 -11 -35 11 -59 l21 -22 -26 -24 c-16 -15 -26 -36 -28 -57 -1 -18 -9 -38
-17 -44 -11 -9 -5 -13 32 -18 62 -9 60 -26 -3 -26 -27 0 -50 -4 -50 -10 0 -5
18 -10 40 -10 34 0 42 -4 50 -26 6 -14 8 -29 6 -32 -2 -4 17 -5 42 -3 32 2 49
-1 57 -12 6 -8 19 -17 30 -20 11 -2 -6 -5 -37 -6 -31 0 -60 -6 -63 -11 -4 -6
-11 -7 -17 -4 -6 4 -26 8 -45 10 -28 3 -34 0 -29 -13 5 -12 1 -14 -16 -9 -13
3 -34 6 -48 7 -18 1 -13 4 15 10 38 7 37 7 -13 5 l-53 -3 31 18 c17 11 35 19
40 19 6 0 10 5 10 11 0 7 -12 10 -30 7 -21 -3 -30 0 -33 11 -3 9 -5 1 -6 -16
-1 -42 -21 -43 -21 -2 0 25 -3 29 -19 24 -11 -3 -22 -1 -26 5 -3 5 -16 11 -28
11 -15 1 -17 3 -6 6 10 2 15 11 12 21 -2 10 0 28 6 42 l10 25 0 -28 c1 -16 5
-26 11 -22 12 8 -5 54 -28 72 -16 13 -15 14 6 10 18 -4 22 -1 22 19 0 16 -4
22 -14 18 -8 -3 -23 -1 -33 5 -16 9 -15 10 7 11 14 0 32 5 40 10 13 9 13 11 0
20 -8 5 -22 10 -30 10 -13 0 -13 1 0 10 13 8 13 10 -2 10 -11 0 -15 5 -12 15
4 10 13 13 25 10 11 -4 19 -2 19 5 0 12 47 33 73 32 10 0 21 6 24 14 3 8 9 14
14 14 4 0 20 11 35 25 24 22 59 31 101 26 6 -1 14 2 16 6 3 5 25 7 50 5 34 -3
44 -8 43 -20z m7234 -321 c0 -5 -25 -19 -55 -32 -54 -24 -70 -39 -40 -39 8 0
15 4 15 10 0 5 7 7 15 4 10 -4 14 -14 10 -28 -6 -21 -6 -21 10 -1 14 17 17 18
31 4 14 -14 12 -17 -16 -31 l-31 -15 30 -13 c17 -7 31 -16 31 -20 0 -4 -17
-15 -38 -24 -29 -13 -60 -17 -128 -15 -49 1 -105 -1 -124 -5 -26 -5 -31 -4
-20 3 12 9 11 11 -7 11 -12 0 -24 4 -28 9 -6 11 74 61 97 61 9 0 33 8 54 17
22 9 44 16 51 15 6 -2 15 3 19 9 8 14 -68 5 -126 -16 -36 -13 -50 -11 -50 5 0
4 44 21 98 38 53 17 117 38 142 46 55 18 60 18 60 7z m-7270 -199 c25 -6 61
-12 80 -13 24 -1 28 -3 13 -6 -13 -2 -23 -9 -23 -14 0 -5 -8 -10 -17 -10 -16
-1 -16 -2 -1 -6 18 -5 33 -33 17 -33 -6 0 -9 -27 -7 -65 2 -55 5 -66 23 -72
11 -4 25 -6 32 -5 6 2 14 -2 18 -8 4 -6 -6 -10 -24 -10 -24 0 -31 -4 -31 -19
0 -10 -7 -21 -15 -25 -8 -3 -15 -10 -15 -17 0 -6 7 -9 15 -6 8 4 17 3 19 -2 3
-4 -34 -13 -81 -19 -47 -6 -91 -17 -99 -23 -16 -13 -19 -49 -4 -49 6 0 10 -16
10 -36 0 -22 4 -33 10 -29 6 4 8 15 5 26 -4 11 -2 19 4 19 6 0 11 -4 11 -9 0
-5 3 -16 6 -25 4 -11 -2 -19 -17 -25 l-24 -10 25 -2 c14 -1 31 -1 38 0 6 1 12
-3 12 -9 0 -15 -55 -17 -134 -4 -27 5 -37 3 -32 -5 4 -6 18 -11 31 -11 13 0
36 -11 50 -24 l26 -25 -48 13 c-27 7 -57 10 -68 6 -16 -5 -13 -8 14 -13 19 -4
45 -7 60 -7 20 0 23 -2 11 -10 -20 -13 -11 -19 41 -24 24 -3 64 -10 89 -15 25
-6 65 -11 90 -12 l45 -2 -45 -7 c-25 -4 -58 -12 -75 -19 -16 -6 -68 -14 -115
-19 -59 -5 -84 -11 -82 -20 2 -10 -2 -10 -17 0 -11 7 -18 15 -15 19 7 12 -11
19 -58 24 -24 3 -59 10 -78 15 -28 8 -20 9 45 6 l80 -3 -65 16 c-39 10 -64 21
-62 29 1 6 -3 12 -8 12 -6 0 -8 10 -5 23 3 12 7 33 9 47 1 14 8 38 15 54 6 16
9 37 6 46 -6 20 13 31 42 24 15 -4 22 2 29 27 7 25 17 35 42 41 49 13 38 27
-20 25 l-53 -2 0 58 c0 31 4 57 9 56 11 -1 26 21 26 39 0 6 -9 12 -20 12 -15
0 -20 7 -20 25 0 14 -5 25 -11 25 -6 0 -1 8 11 18 19 16 21 22 11 40 -11 21
-9 22 21 23 18 0 41 3 50 7 27 11 148 7 198 -6z m7013 -148 c9 -3 17 -10 17
-15 0 -5 15 -9 33 -9 17 0 64 -12 102 -26 39 -14 84 -31 102 -37 34 -11 50
-48 38 -87 -5 -16 -2 -20 19 -20 17 0 26 -6 26 -16 0 -8 -5 -12 -11 -9 -5 4
-19 -1 -29 -10 -10 -9 -24 -14 -29 -10 -6 3 -11 1 -11 -4 0 -6 -7 -11 -15 -11
-8 0 -15 -5 -15 -10 0 -7 6 -7 19 0 11 5 36 10 56 10 32 0 35 -2 25 -19 -7
-13 -7 -22 0 -26 5 -3 10 -1 10 6 0 7 2 10 5 8 10 -11 -9 -49 -25 -49 -10 0
-20 -7 -24 -15 -5 -14 7 -25 59 -53 18 -10 18 -11 2 -12 -11 0 -15 -5 -11 -11
4 -7 -1 -7 -16 1 -13 7 -33 9 -48 4 -15 -4 -33 -6 -40 -5 -7 1 -28 -2 -45 -8
-57 -18 -91 -21 -99 -8 -6 9 -12 9 -26 0 -10 -6 -24 -8 -31 -4 -6 4 -33 5 -60
1 -27 -3 -57 -3 -67 1 -17 7 -17 8 5 15 22 7 22 7 -10 21 -19 8 -51 18 -72 21
-21 4 -39 12 -40 17 -1 14 45 22 128 24 88 1 175 12 175 20 0 4 -26 4 -57 0
-32 -4 -96 -8 -142 -8 -83 -1 -84 -1 -66 19 17 19 17 21 -10 46 -27 25 -27 25
-6 31 15 4 21 13 21 34 0 16 5 29 13 29 9 0 8 3 -2 9 -11 7 -9 11 8 20 11 7
21 21 21 32 0 13 10 24 30 30 36 13 38 24 8 33 l-23 6 24 20 c23 20 23 20 2
20 -12 0 -21 5 -21 11 0 10 54 6 103 -7z"/>
<path d="M7745 3095 c-847 -7 -2213 -16 -3035 -20 -822 -4 -1501 -8 -1508 -11
-7 -2 -590 -4 -1295 -5 -705 0 -1423 -3 -1594 -6 l-313 -6 0 -1387 0 -1388 26
-6 c15 -4 43 -23 63 -42 20 -19 59 -42 86 -53 66 -24 305 -58 305 -42 0 3 28
8 63 10 141 9 150 11 117 20 -17 6 5 10 75 16 55 5 105 9 110 10 6 0 51 5 100
9 152 14 131 25 -50 27 -93 1 -174 1 -180 -1 -14 -2 -137 22 -132 27 2 2 15 6
27 8 45 9 40 24 -10 30 -35 5 -54 15 -27 15 10 0 17 7 17 15 0 8 -7 15 -15 15
-8 0 -15 5 -15 10 0 6 7 10 15 10 27 0 17 37 -12 45 -26 6 -27 7 -8 17 29 16
31 18 16 27 -17 11 -5 48 17 54 27 6 -36 30 -88 32 -25 1 -48 3 -52 4 -5 0 -8
15 -8 32 0 24 4 30 15 25 9 -3 15 0 15 9 0 8 -5 14 -12 13 -6 -2 -14 5 -16 15
-3 14 4 17 35 17 21 0 54 3 74 6 34 6 35 7 34 47 -1 41 -1 42 -63 66 -42 16
-58 27 -50 33 10 6 10 8 1 8 -8 0 -13 14 -13 34 0 26 -5 35 -22 41 l-23 8 22
4 c17 3 22 13 25 47 2 32 0 42 -9 39 -7 -3 -13 0 -13 6 0 6 7 11 15 11 8 0 15
5 15 10 0 6 -7 10 -15 10 -23 0 -18 17 8 24 12 3 43 6 70 6 49 0 55 7 35 41
-11 17 -10 22 5 30 15 9 16 12 3 25 -12 12 -13 20 -4 40 9 20 9 30 -1 47 -10
15 -11 22 -2 25 14 5 15 32 0 32 -5 0 -7 5 -3 11 4 8 -9 10 -45 8 -46 -4 -61
3 -61 26 0 13 36 35 56 35 13 0 24 5 24 10 0 6 -11 10 -24 10 -13 0 -31 3 -40
6 -29 11 -17 24 23 24 22 0 43 4 46 10 3 5 18 10 33 11 15 0 21 3 14 6 -6 2
-10 9 -6 14 3 5 7 23 9 40 3 24 0 32 -20 39 -14 5 -25 14 -25 19 0 5 -18 12
-39 16 -38 6 -67 35 -36 35 18 0 19 9 5 45 -6 15 -6 24 -1 20 21 -12 21 17 0
34 -15 12 -19 20 -11 25 8 4 12 0 13 -11 0 -11 3 -13 6 -5 3 7 -3 23 -13 34
-13 14 -15 22 -8 25 7 2 10 13 7 23 -7 25 26 36 110 39 30 2 18 25 -25 49 -24
12 -54 32 -68 43 l-25 20 32 -15 c18 -9 34 -16 37 -16 11 0 45 44 40 52 -3 4
-2 13 1 19 4 6 8 33 9 60 l1 49 -53 0 -53 0 3 57 3 58 50 8 c77 12 79 13 61
39 -20 28 -20 38 -1 38 31 0 13 16 -57 50 -53 26 -65 36 -48 38 20 3 21 4 4
17 -15 10 -16 17 -8 36 10 25 8 59 -4 59 -4 0 -7 30 -7 67 -1 47 -5 68 -14 71
-10 3 -12 -1 -8 -11 9 -24 -7 -29 -44 -12 l-34 14 28 1 c35 0 31 25 -4 26 -51
1 -56 3 -39 14 22 14 77 12 83 -2 8 -19 27 11 27 43 0 18 9 33 27 45 24 16 51
19 183 20 l155 2 -140 -8 c-163 -9 -152 -7 -139 -20 15 -15 233 -24 329 -15
l80 8 -40 13 -40 13 50 -6 c66 -8 85 -18 92 -54 5 -26 9 -29 47 -30 22 -1 46
-1 53 0 22 3 53 -50 53 -93 0 -30 -3 -37 -10 -26 -7 11 -10 5 -10 -22 0 -21 3
-38 8 -38 4 0 13 -12 19 -27 11 -23 10 -28 -7 -40 -11 -8 -19 -22 -19 -31 1
-15 2 -15 6 1 7 26 23 21 23 -8 0 -14 4 -25 8 -25 11 0 12 -103 2 -110 -11 -7
-16 -87 -7 -96 4 -4 7 -20 7 -36 0 -16 4 -27 8 -24 4 2 8 -3 9 -12 1 -9 5 -63
10 -120 5 -57 5 -106 1 -108 -5 -3 -3 -14 2 -25 7 -13 7 -19 0 -19 -5 0 -10
-7 -10 -16 0 -8 4 -13 9 -9 6 3 13 -15 17 -41 4 -30 3 -49 -4 -53 -12 -7 -5
-81 8 -81 8 0 17 -63 25 -165 3 -40 1 -53 -5 -40 -8 18 -10 16 -14 -16 0 -7
-9 -15 -18 -18 -15 -5 -13 -9 12 -19 33 -15 33 -15 50 -192 6 -63 17 -176 25
-250 8 -74 17 -193 20 -265 2 -71 10 -156 16 -188 12 -65 4 -115 -20 -134 -31
-25 -132 -73 -151 -73 -11 0 -20 -4 -20 -9 0 -5 17 -5 41 0 37 9 43 7 56 -11
12 -18 22 -20 52 -15 20 3 90 -3 156 -14 242 -40 340 -46 710 -45 201 1 402 6
455 13 201 24 248 31 344 51 183 39 199 41 271 20 36 -10 109 -25 163 -34 89
-13 143 -18 392 -32 127 -7 322 15 338 37 7 10 22 19 35 22 21 3 21 4 -4 14
-15 7 -114 14 -220 18 -216 7 -415 27 -523 51 -79 18 -165 54 -184 76 -15 19
-32 138 -22 158 13 26 21 110 26 255 2 77 9 178 14 225 5 47 12 134 15 193 3
60 8 113 11 119 4 6 7 37 6 69 0 33 3 59 7 59 4 0 8 64 9 143 0 78 5 153 10
168 6 14 8 37 5 51 -3 14 2 36 11 49 10 17 12 29 6 39 -15 24 -12 57 11 97 17
29 19 41 10 55 -8 13 -8 18 0 18 8 0 10 17 6 58 -5 44 -3 64 9 81 13 17 13 25
3 37 -9 12 -8 18 7 35 15 16 16 22 5 29 -16 9 -7 80 10 80 6 0 7 5 3 11 -3 6
-2 14 3 18 13 8 24 131 11 131 -5 0 -6 5 -3 11 4 6 0 16 -8 22 -24 19 -25 50
-2 68 33 26 67 30 174 19 97 -10 102 -10 131 12 16 12 30 28 30 35 0 7 4 13
10 13 5 0 7 6 4 14 -4 11 36 13 223 13 125 -1 238 3 251 7 17 6 22 4 22 -11 0
-10 11 -34 24 -53 l24 -35 130 0 c117 0 133 -2 159 -21 l28 -21 7 -159 c7
-182 23 -453 42 -699 7 -93 14 -188 15 -210 0 -22 8 -125 15 -230 8 -104 17
-224 20 -265 3 -41 8 -113 11 -160 10 -177 18 -256 28 -280 6 -14 9 -29 7 -35
-1 -5 -2 -47 -2 -92 1 -68 -3 -88 -21 -114 -25 -37 -109 -75 -191 -85 -66 -9
-113 -29 -126 -54 -9 -18 -8 -20 14 -20 14 0 28 -5 31 -10 4 -6 12 -7 18 -3 6
4 32 8 56 10 24 1 47 6 50 10 3 4 13 9 21 10 8 1 44 8 78 15 56 12 80 12 195
-3 275 -35 694 -51 858 -31 l64 7 -80 6 c-46 3 -4 5 102 4 101 0 179 1 174 4
-5 4 21 7 57 7 37 1 116 11 176 24 60 12 120 19 135 16 14 -3 67 -14 116 -25
127 -28 235 -39 505 -52 201 -9 265 -8 445 7 116 9 216 17 223 17 6 0 12 4 12
9 0 4 18 8 40 8 41 0 54 -14 23 -24 -10 -3 5 -3 32 0 49 5 206 40 315 69 69
19 84 19 100 -1 96 -115 1084 -167 1511 -79 81 17 136 38 188 72 37 25 96 30
178 14 26 -5 76 -12 111 -14 l62 -5 0 98 0 99 -37 10 c-21 6 -44 11 -52 11
-28 0 -131 33 -131 41 0 5 8 9 17 9 14 0 14 3 -4 22 -11 13 -18 29 -16 36 3 6
0 12 -6 12 -7 0 -7 10 1 30 7 22 7 34 -1 44 -9 10 -8 15 3 19 10 4 14 21 14
54 0 26 5 49 11 51 15 5 14 29 -1 36 -13 5 -12 6 31 35 11 7 12 13 4 23 -5 7
-7 24 -2 38 l7 25 1 -25 c1 -21 3 -22 11 -9 6 10 6 29 0 50 -5 18 -6 35 -2 38
11 8 9 75 -2 83 -6 4 -6 12 1 20 6 7 13 25 17 41 6 24 4 27 -19 27 -14 0 -25
3 -25 8 1 18 32 45 67 57 27 10 32 14 16 15 -13 0 -23 4 -23 8 0 5 -11 14 -25
20 -23 11 -36 35 -16 30 12 -4 14 3 5 26 -4 11 0 30 10 46 16 27 15 29 -5 35
-19 6 -19 8 -4 25 13 15 14 22 3 45 -10 23 -10 28 5 36 22 13 22 26 0 32 -15
4 -16 5 -2 6 9 0 19 10 22 21 3 11 12 20 20 20 8 0 17 9 20 20 3 11 1 20 -5
20 -5 0 -8 6 -5 13 2 6 10 11 17 9 13 -3 5 55 -12 75 -5 7 -6 18 -1 25 11 18
13 108 1 108 -5 0 -7 4 -3 10 3 5 13 6 22 3 11 -4 14 -2 11 8 -3 8 -11 13 -17
12 -6 -2 -11 10 -11 26 0 24 5 30 30 35 36 7 38 21 8 37 -43 23 -61 53 -37 61
6 2 11 36 12 81 1 42 5 77 9 77 3 0 11 14 17 32 9 26 9 34 -4 40 -23 14 -18
24 18 34 l32 10 3 362 3 362 -478 -2 c-263 0 -1171 -7 -2018 -13z m1564 -325
c13 -3 25 -13 27 -22 2 -17 -34 -27 -108 -30 -21 -1 -38 -5 -38 -10 0 -4 100
-8 223 -8 228 0 264 -2 307 -18 l24 -9 -21 -12 c-24 -12 -137 -39 -221 -51
-30 -5 -56 -11 -60 -14 -6 -7 64 -11 120 -7 38 2 38 2 31 -31 -8 -43 -13 -48
-13 -15 0 22 -5 27 -24 27 -21 0 -24 -5 -28 -47 -2 -27 1 -51 6 -55 7 -5 7 -8
-1 -8 -24 0 -13 -28 14 -35 21 -5 24 -8 12 -16 -10 -6 -2 -9 26 -10 22 -1 32
-3 22 -6 -9 -2 -14 -9 -11 -15 5 -8 -5 -9 -32 -6 -21 3 -50 3 -64 -1 -18 -6
-6 -9 48 -15 83 -8 89 -20 9 -19 -46 1 -42 0 28 -11 44 -7 98 -12 120 -10 l40
3 -38 -8 c-21 -4 -43 -14 -50 -21 -10 -10 -7 -11 14 -7 19 5 26 3 26 -8 0 -11
-13 -15 -49 -15 -26 0 -58 -5 -71 -12 -12 -6 -29 -14 -37 -18 -24 -11 -18 -35
10 -38 14 -2 29 -8 34 -13 6 -5 15 -4 23 3 17 14 86 18 105 7 15 -10 7 -20
-20 -22 -37 -2 -11 -27 29 -27 21 0 39 -4 39 -10 0 -5 -18 -10 -40 -10 -38 0
-52 -12 -30 -25 6 -3 10 -15 10 -26 0 -14 7 -19 25 -19 14 0 25 -4 25 -10 0
-5 -11 -10 -25 -10 -14 0 -25 -4 -25 -10 0 -5 6 -10 14 -10 8 0 12 -8 9 -23
-3 -14 4 -32 17 -47 12 -14 19 -20 16 -14 -3 7 3 9 19 6 14 -2 22 -8 20 -13
-3 -4 -12 -6 -20 -2 -9 3 -15 -1 -15 -10 0 -13 -60 -27 -123 -28 -9 0 -29 -7
-45 -16 -23 -12 -23 -14 -4 -10 12 3 22 1 22 -4 0 -5 -15 -9 -33 -9 -31 0 -34
-3 -34 -30 0 -27 4 -30 31 -30 30 0 30 0 8 -16 -12 -8 -26 -13 -31 -10 -5 3
-14 -1 -21 -9 -15 -18 3 -47 24 -39 7 3 19 -2 26 -11 11 -13 8 -15 -17 -15
-26 0 -30 -3 -30 -30 0 -27 4 -30 30 -30 44 0 26 -11 -21 -13 -22 -1 -44 -6
-49 -11 -4 -4 18 -6 50 -4 31 1 57 0 57 -4 0 -4 21 -10 48 -13 68 -9 82 -16
52 -25 l-25 -8 28 -1 c15 -1 27 -5 27 -11 0 -5 7 -10 15 -10 9 0 12 6 9 15 -8
20 23 20 42 0 14 -13 13 -15 -4 -15 -11 0 -36 -7 -55 -15 -20 -8 -42 -12 -50
-9 -11 4 -13 -1 -9 -23 l5 -28 -25 23 c-13 12 -33 22 -44 22 -16 -1 -16 -3 6
-16 l25 -15 -26 4 c-21 3 -25 0 -22 -14 4 -13 -2 -20 -23 -25 -26 -7 -27 -8
-6 -15 11 -4 36 -4 54 2 18 5 59 13 90 18 66 9 65 9 75 -81 4 -40 2 -58 -6
-58 -14 0 -14 -27 0 -36 7 -4 16 2 22 12 10 18 11 17 18 -6 4 -14 7 -49 8 -77
1 -40 -3 -53 -14 -53 -9 0 -12 6 -9 15 4 8 1 15 -5 15 -6 0 -11 -9 -11 -19 0
-11 -4 -23 -10 -26 -5 -3 -10 0 -10 7 0 9 -3 9 -8 2 -4 -6 -46 -16 -94 -24
-68 -10 -87 -17 -91 -31 -3 -11 1 -19 12 -22 11 -3 7 -6 -11 -11 -33 -10 -36
-22 -7 -31 15 -5 17 -10 10 -19 -6 -7 -8 -15 -6 -18 3 -3 -8 -11 -25 -18 -16
-7 -30 -15 -30 -19 0 -4 20 -17 45 -29 67 -32 59 -46 -22 -39 -55 4 -61 3 -33
-5 19 -5 40 -14 45 -20 10 -10 -15 -8 -100 9 -16 3 -27 2 -23 -2 8 -9 240 -44
293 -45 22 0 47 -5 55 -10 11 -7 6 -9 -20 -8 -59 3 -114 -2 -106 -9 4 -5 18
-8 29 -9 113 -4 157 -8 129 -11 -18 -2 -30 -9 -27 -14 4 -5 1 -9 -4 -9 -6 0
-11 4 -11 10 0 6 -9 6 -26 0 -14 -6 -40 -10 -59 -10 -19 0 -37 -5 -40 -11 -4
-6 -13 -8 -21 -5 -24 9 -46 -4 -33 -20 8 -10 5 -15 -15 -20 -14 -3 -26 -10
-26 -15 0 -15 93 -10 124 6 15 8 38 15 51 15 12 0 42 7 65 15 50 18 50 18 50
5 0 -17 -37 -48 -62 -53 -14 -3 -8 -5 16 -6 25 0 47 5 59 16 15 13 21 15 24 6
6 -18 30 -16 37 3 3 8 10 12 16 9 17 -11 11 -23 -15 -29 -33 -8 -32 -24 3 -38
l27 -12 -27 -4 c-29 -4 -78 -47 -78 -69 0 -9 11 -13 35 -11 35 2 60 -11 36
-20 -11 -4 -11 -6 0 -14 9 -6 3 -7 -20 -3 -23 5 -31 4 -27 -4 4 -6 14 -11 22
-11 8 0 14 -5 14 -11 0 -8 -11 -9 -32 -5 -30 6 -31 5 -13 -8 17 -13 18 -15 3
-16 -9 0 -19 -4 -23 -9 -3 -6 7 -6 27 0 18 5 42 9 53 9 18 -1 17 -2 -5 -15
-95 -55 -333 -85 -690 -85 -269 -1 -376 6 -320 20 18 4 25 13 25 30 0 21 6 26
40 31 22 3 33 7 25 9 -8 1 1 6 20 10 l35 7 -35 2 c-29 1 -36 5 -36 21 0 11 7
20 16 21 11 0 10 2 -3 8 -10 4 -18 11 -18 16 1 6 -2 10 -6 11 -49 3 -123 17
-123 23 0 4 -10 13 -22 19 -22 10 -21 11 12 13 19 1 41 2 48 2 21 -1 13 7 -20
22 -19 8 -26 14 -15 15 23 0 22 21 -3 27 -27 7 -25 23 3 20 17 -1 21 2 19 18
-2 11 -8 23 -14 26 -17 11 22 19 100 21 42 0 62 3 44 5 -28 4 -31 7 -21 19 8
10 8 18 1 26 -6 7 -10 29 -9 48 1 34 2 35 34 32 18 -2 33 0 33 6 0 5 -40 17
-90 27 -139 27 -112 33 40 9 46 -7 29 8 -35 31 -27 10 -53 24 -58 31 -4 7 -14
11 -21 8 -10 -4 -12 6 -8 44 3 34 0 52 -9 57 -17 11 63 35 119 35 23 0 42 2
42 4 0 2 3 11 6 20 4 12 0 16 -15 16 -12 0 -21 6 -21 15 0 8 7 15 15 15 8 0
15 5 15 11 0 5 -5 7 -10 4 -14 -9 -24 21 -14 43 18 41 12 47 -53 48 -113 3
-124 4 -118 14 3 6 19 10 36 10 31 0 36 9 18 27 -7 7 -8 17 -3 25 5 7 9 22 10
33 1 11 5 29 9 39 6 13 5 17 -2 13 -6 -4 -13 0 -17 8 -3 9 0 15 10 15 8 0 13
4 10 9 -6 10 41 21 88 21 l31 0 -3 55 c-2 30 -10 59 -17 65 -7 6 -11 19 -8 29
3 13 12 16 33 13 15 -2 30 0 33 5 3 5 -26 17 -66 27 -74 18 -155 66 -111 66
20 0 21 5 18 48 -2 26 -3 50 -4 54 0 4 -12 9 -27 11 -16 2 -1 5 32 6 33 0 76
4 96 7 36 6 36 7 28 41 -6 30 -5 36 12 40 25 7 24 20 -1 28 -20 6 -28 25 -10
25 5 0 6 8 3 17 -4 11 -8 12 -11 5 -2 -7 -8 -12 -14 -12 -5 0 -6 9 -3 20 6 19
-9 30 -17 12 -1 -4 -23 -4 -48 2 -25 5 -37 11 -27 13 9 3 17 8 17 13 0 14 -18
21 -25 10 -11 -18 -26 -10 -23 13 2 12 9 21 16 19 14 -2 16 14 3 22 -5 3 -11
15 -14 27 -4 15 -2 19 9 15 10 -4 14 4 14 30 0 28 3 35 15 30 8 -3 15 -1 15 4
0 5 25 10 57 12 l56 3 -25 24 c-27 26 -27 51 0 51 13 0 12 3 -4 15 -17 13 -17
14 -1 15 10 0 17 8 17 20 0 15 7 20 28 21 26 2 26 2 2 6 -47 8 -57 15 -30 23
l25 8 -27 1 c-16 1 -28 -3 -28 -9 0 -5 -5 -10 -10 -10 -6 0 -10 8 -8 18 2 11
-4 18 -20 20 -12 2 -20 7 -17 12 3 4 -7 11 -20 14 -14 4 -23 11 -20 16 3 5 -2
13 -11 18 -10 6 -14 19 -12 38 l3 29 97 0 c53 1 100 3 103 6 3 4 -35 9 -85 13
-106 8 -116 11 -123 37 -5 18 3 23 31 20 8 -1 21 4 31 13 11 10 40 15 86 17
91 2 136 9 129 20 -3 5 -34 9 -70 9 -57 0 -64 2 -56 16 6 10 26 18 53 20 23 3
46 8 49 13 11 18 124 19 189 1z m-1564 -50 c33 -5 71 -11 84 -13 14 -2 27 -9
29 -15 7 -22 -45 -41 -146 -53 -96 -12 -114 -21 -67 -32 18 -4 18 -5 -2 -6
-26 -1 -50 -36 -32 -46 6 -4 13 -4 16 -1 3 3 14 1 23 -4 13 -7 17 -19 15 -44
-4 -39 -12 -37 85 -21 l30 5 -1 -56 c-1 -30 -6 -57 -11 -60 -15 -10 -8 -33 13
-39 17 -6 19 -9 8 -16 -8 -5 -23 -9 -34 -9 -43 0 -93 -21 -98 -40 -3 -13 0
-20 10 -20 9 0 13 6 10 13 -4 10 2 13 20 9 21 -4 23 -6 9 -14 -20 -11 -66 -53
-66 -60 0 -10 39 -16 44 -7 2 5 3 4 2 -3 -2 -8 -20 -13 -48 -13 -26 0 -44 -3
-41 -7 2 -5 20 -8 39 -8 19 0 42 -4 52 -9 9 -6 34 -13 55 -16 37 -6 48 -19 25
-28 -10 -4 -10 -8 1 -15 12 -9 12 -13 2 -26 -11 -13 -11 -19 -1 -30 6 -8 10
-23 8 -33 -1 -10 1 -24 6 -31 13 -21 -10 -38 -55 -41 -55 -3 -85 -35 -63 -68
18 -29 18 -43 -1 -43 -8 0 -15 -4 -15 -10 0 -5 7 -10 15 -10 8 0 15 -7 15 -15
0 -8 -4 -15 -10 -15 -5 0 -7 -7 -4 -15 4 -9 -2 -18 -17 -24 l-24 -10 25 -1
c14 -1 53 -1 88 0 50 1 62 -2 62 -14 0 -9 -8 -16 -17 -16 -16 0 -16 -1 -2 -16
15 -14 15 -19 0 -60 -12 -33 -22 -46 -41 -50 -38 -8 -100 -36 -100 -45 0 -4 5
-11 10 -14 7 -4 7 -12 0 -25 -14 -26 -13 -30 10 -30 11 0 20 -4 20 -10 0 -5
-9 -10 -20 -10 -11 0 -20 -4 -20 -9 0 -4 33 -14 73 -20 68 -11 123 -30 88 -31
-11 0 -9 -4 4 -14 17 -13 18 -17 6 -40 -11 -20 -12 -34 -3 -62 12 -40 0 -64
-32 -64 -9 0 -16 -4 -16 -10 0 -5 -13 -10 -30 -10 -32 0 -50 -22 -50 -64 0
-13 -5 -26 -11 -28 -7 -2 -5 -9 5 -17 14 -12 16 -11 16 8 0 30 17 26 23 -6 4
-21 1 -32 -14 -42 -32 -23 -24 -44 14 -38 31 6 112 -5 123 -16 3 -3 -2 -19
-10 -36 -20 -37 -20 -41 -1 -41 10 0 14 -9 12 -31 -2 -27 -8 -32 -57 -49 -30
-11 -62 -19 -71 -20 -9 0 -19 -9 -22 -20 -4 -17 0 -22 24 -27 l29 -5 -25 -20
c-14 -11 -25 -28 -25 -38 0 -22 22 -39 28 -22 5 17 31 15 38 -2 3 -8 23 -17
45 -21 32 -6 38 -10 35 -28 -1 -11 -8 -23 -14 -25 -8 -2 -8 -7 1 -17 7 -7 15
-11 19 -8 4 2 5 -3 2 -12 -4 -8 0 -22 7 -31 10 -13 10 -17 -2 -25 -8 -5 -23
-9 -33 -9 -11 0 -17 -2 -14 -5 3 -3 33 -1 67 3 43 6 61 6 58 -2 -2 -6 -26 -14
-53 -18 -152 -23 -194 -32 -194 -39 0 -5 5 -9 10 -9 6 0 10 -8 10 -19 0 -10
10 -25 22 -33 19 -13 21 -18 10 -31 -7 -8 -27 -20 -45 -27 -18 -6 -40 -16 -50
-21 -10 -6 -28 -7 -40 -4 -17 5 -19 4 -7 -4 11 -8 3 -11 -33 -11 -36 0 -46 3
-41 13 5 9 4 9 -5 1 -8 -8 -25 -9 -49 -3 -20 5 -70 9 -109 9 -89 0 -139 19
-175 67 -31 40 -36 66 -13 57 8 -4 17 1 21 9 4 13 11 14 32 6 14 -5 33 -7 41
-3 23 10 28 11 61 13 56 2 30 20 -40 27 -44 4 -74 12 -82 22 -10 12 -10 14 -1
8 9 -5 11 -2 7 8 -3 9 -11 14 -17 13 -7 -1 -12 5 -12 13 0 9 7 14 19 12 15 -3
18 1 13 17 -3 12 -1 21 4 21 5 0 9 18 9 40 0 29 -4 40 -15 40 -8 0 -15 4 -15
10 0 5 6 7 13 5 6 -3 17 6 23 19 10 22 8 25 -26 35 -21 6 -46 11 -57 11 -10 0
-24 5 -30 11 -13 13 -5 49 11 50 37 2 131 11 132 12 1 1 0 14 -3 29 -6 30 -19
36 -80 42 -55 4 -63 11 -63 57 0 24 4 38 10 34 6 -3 10 1 10 9 0 9 -5 16 -11
16 -7 0 -9 12 -5 36 5 22 3 41 -5 50 -9 11 -8 18 2 30 11 14 10 18 -6 30 -26
19 -17 25 60 34 37 5 72 14 79 21 8 9 8 10 -1 5 -7 -4 -13 -2 -13 3 0 6 -8 11
-17 11 -14 0 -13 3 5 16 20 14 22 23 19 61 -3 24 -13 53 -23 64 -16 18 -16 19
1 19 15 0 17 6 11 39 -5 32 -3 40 11 44 15 4 14 5 -3 6 -11 0 -24 5 -30 9 -5
5 -31 17 -59 27 -85 32 -84 42 6 48 85 6 99 11 82 28 -6 6 -9 17 -6 25 3 9 -8
15 -34 19 -21 4 -46 9 -55 12 -20 5 -24 28 -8 38 6 4 8 11 5 16 -4 5 1 9 9 9
17 0 19 12 10 48 -5 17 -11 21 -25 17 -23 -8 -23 -3 -4 35 16 31 11 57 -14 78
-14 12 -14 13 2 8 11 -3 17 0 17 10 0 8 -4 12 -10 9 -5 -3 -10 -2 -10 4 0 14
37 24 90 22 l46 -1 -2 42 c-1 22 -7 44 -14 48 -7 4 5 17 34 34 25 15 46 28 46
29 0 1 -20 1 -44 -1 -37 -3 -44 -1 -42 12 1 9 6 16 11 15 12 -1 27 29 20 41
-4 6 -11 8 -16 5 -5 -4 -9 5 -9 20 0 14 7 28 15 31 27 11 16 19 -52 39 -38 11
-60 21 -50 23 9 2 17 8 17 14 0 5 -7 8 -15 4 -8 -3 -15 -2 -15 3 0 12 37 21
88 21 23 0 42 5 42 10 0 6 -6 10 -12 11 -7 1 -2 5 12 9 25 8 25 8 -5 9 -27 2
-28 3 -12 15 27 21 21 25 -43 25 -66 -1 -92 8 -66 23 10 6 14 17 11 31 -2 12
-7 54 -10 94 -5 69 -4 72 17 75 31 4 29 30 -2 39 l-25 7 25 2 c14 1 19 4 13 7
-16 6 -17 23 -2 23 7 0 17 7 23 15 8 11 39 19 96 24 122 12 395 12 465 1z
m-1608 -24 c4 -4 -2 -15 -14 -23 -21 -14 -22 -16 -7 -56 9 -23 22 -54 30 -70
9 -15 16 -41 16 -57 1 -17 5 -30 10 -30 4 0 8 -9 8 -20 0 -11 6 -20 13 -20 9
0 9 -2 -1 -9 -10 -6 -9 -10 7 -14 26 -7 28 -27 2 -27 -11 0 -23 -4 -26 -10 -3
-6 4 -10 18 -10 20 0 23 -4 19 -25 -5 -28 -22 -34 -23 -7 0 13 -3 11 -12 -7
-9 -19 -9 -25 1 -29 29 -9 61 -49 66 -84 6 -33 5 -36 -14 -31 -25 7 -27 -15
-5 -57 9 -17 11 -31 5 -35 -5 -3 -7 -12 -3 -20 3 -8 0 -15 -7 -15 -10 0 -9 -4
1 -16 10 -13 10 -17 -2 -25 -11 -7 -11 -9 4 -9 26 0 20 -29 -8 -36 -21 -5 -24
-10 -18 -28 4 -11 7 -33 8 -48 0 -16 6 -28 13 -28 6 0 12 -7 12 -15 0 -18 -16
-20 -24 -2 -3 6 -3 -22 0 -63 4 -41 11 -78 17 -81 5 -4 -1 -10 -14 -14 l-24
-8 24 -9 c16 -5 28 -5 35 2 13 13 36 13 36 0 0 -5 -7 -10 -15 -10 -8 0 -15 -4
-15 -10 0 -5 7 -10 15 -10 21 0 19 -13 -6 -29 -15 -9 -18 -15 -10 -20 9 -6 7
-12 -5 -22 -13 -11 -18 -11 -21 -1 -3 6 -11 12 -20 12 -21 0 -11 -23 15 -35
12 -5 22 -13 22 -17 0 -5 11 -8 24 -8 41 0 45 -56 5 -89 l-24 -20 24 -1 c18 0
21 -3 13 -13 -7 -8 -7 -18 -2 -27 14 -21 12 -30 -5 -30 -8 0 -15 -9 -15 -19 0
-11 -4 -23 -10 -26 -5 -3 -10 -11 -10 -17 0 -6 8 -4 18 5 10 10 25 17 33 17 9
0 5 -8 -11 -21 l-25 -21 30 7 30 7 -40 -35 c-39 -35 -40 -36 -20 -52 19 -16
19 -16 -14 -11 -29 5 -32 4 -26 -12 4 -9 12 -29 17 -44 5 -16 13 -28 18 -28
16 0 19 -44 3 -55 -19 -14 -9 -37 12 -28 8 3 15 0 15 -6 0 -6 -7 -11 -16 -11
-9 0 -14 -7 -12 -17 3 -13 13 -18 39 -18 35 0 36 -1 28 -30 -7 -23 -5 -33 6
-41 17 -13 10 -24 -16 -24 -10 0 -21 -9 -24 -20 -3 -11 -12 -20 -18 -20 -7 -1
0 -7 15 -15 19 -11 25 -20 21 -36 -3 -11 0 -31 7 -44 11 -20 11 -27 0 -40 -10
-12 -11 -18 -2 -24 7 -4 8 -12 2 -21 -14 -22 -12 -33 4 -27 16 7 27 -23 20
-58 -3 -17 1 -25 13 -27 12 -2 4 -11 -27 -26 -33 -16 -101 -29 -245 -48 -174
-23 -237 -27 -485 -27 -359 -1 -624 29 -762 88 -42 17 -46 28 -22 52 12 12 14
27 9 61 -5 37 2 110 21 209 2 12 13 25 25 28 16 5 18 10 8 21 -6 8 -7 14 -2
14 4 0 8 18 8 40 0 27 -4 40 -13 40 -12 0 -11 5 2 25 17 26 21 55 8 55 -13 0
-30 57 -21 71 5 8 8 34 7 58 -1 25 2 46 8 48 5 2 16 8 24 13 13 9 12 13 -9 30
-21 18 -20 25 2 21 4 -1 7 4 5 11 -1 7 3 23 10 35 7 12 12 32 12 45 -2 83 -6
125 -13 135 -5 7 0 16 13 23 14 8 19 17 15 30 -4 12 0 20 13 24 15 5 18 16 18
64 0 31 4 64 8 73 4 10 1 23 -10 34 -21 21 -26 108 -7 144 6 14 10 29 6 33 -3
5 1 15 9 21 20 17 40 84 33 107 -4 11 -2 20 4 20 6 0 8 6 5 14 -3 8 -1 17 5
20 5 4 7 22 4 41 -4 22 1 52 12 81 9 25 15 53 12 64 -3 12 6 28 24 46 16 15
29 36 29 47 0 12 5 17 14 14 23 -9 30 26 8 41 -16 11 -19 21 -15 60 3 26 9 51
14 56 5 6 9 20 9 33 0 14 6 23 15 23 8 0 15 5 15 10 0 6 -8 10 -17 10 -17 1
-17 1 0 11 9 5 17 16 17 24 0 11 21 15 88 18 173 7 891 2 899 -7z m-3334 -6
c97 -11 141 -32 132 -61 -3 -10 1 -29 10 -43 9 -14 14 -30 10 -36 -4 -6 -3
-19 1 -28 4 -9 8 -28 10 -42 6 -67 16 -103 35 -123 18 -19 18 -22 4 -25 -13
-3 -14 -6 -4 -18 10 -12 9 -21 -5 -45 -15 -25 -15 -28 -1 -23 11 5 14 2 9 -10
-3 -9 -2 -16 4 -16 6 0 13 6 15 13 3 6 6 0 6 -15 1 -16 -3 -28 -9 -28 -19 0
-10 -38 10 -43 24 -6 26 -38 4 -72 -15 -24 -11 -51 6 -40 5 3 12 -7 15 -22 4
-15 8 -39 11 -52 3 -14 0 -28 -7 -32 -11 -6 -11 -12 0 -31 13 -25 15 -39 26
-148 3 -36 8 -83 11 -105 10 -85 3 -179 -14 -198 -15 -17 -15 -20 -1 -30 24
-18 31 -84 13 -112 -9 -13 -11 -26 -6 -29 5 -3 13 -26 16 -51 5 -29 11 -43 18
-39 8 5 9 1 3 -12 -9 -22 -9 -22 4 -124 10 -77 16 -165 27 -395 4 -71 11 -135
16 -142 5 -7 7 -17 4 -22 -4 -5 -2 -12 4 -16 16 -10 11 -61 -8 -78 -129 -117
-837 -181 -1352 -122 -168 19 -311 52 -304 70 3 8 -9 15 -38 20 l-43 8 40 7
c29 5 33 8 13 9 -31 1 -39 16 -26 50 5 14 7 30 4 38 -4 8 2 13 17 13 19 0 22
5 22 44 0 36 -5 48 -28 66 -27 22 -28 23 -10 42 10 11 17 22 16 24 -2 2 -3 15
-3 29 0 18 5 25 20 25 11 0 19 3 19 8 -1 4 -1 26 0 49 1 33 4 41 16 37 10 -4
15 0 15 14 0 18 -4 20 -36 15 -35 -6 -36 -5 -29 18 4 13 11 26 14 29 3 3 7 20
8 38 6 81 10 97 21 94 7 -1 12 3 12 8 0 6 10 15 23 20 21 8 21 9 -5 9 -16 1
-28 6 -28 11 0 10 34 15 83 11 15 -1 27 2 27 8 0 5 3 16 6 24 3 10 -2 18 -15
22 -29 9 -16 25 20 25 16 0 29 5 29 10 0 6 -12 10 -26 10 -21 0 -24 4 -19 20
5 16 2 20 -14 20 -12 0 -21 7 -21 15 0 8 9 15 20 15 11 0 20 5 20 10 0 6 -4
10 -8 10 -5 0 -17 7 -28 16 -18 14 -15 15 39 11 31 -2 57 -2 57 0 0 2 -21 14
-47 25 -53 23 -95 53 -87 60 3 3 42 3 88 1 50 -3 86 -1 89 4 4 7 -29 12 -86
15 -101 5 -167 26 -92 29 22 1 32 3 22 6 -10 3 -16 10 -14 16 4 12 10 14 55
16 18 1 22 7 22 31 0 17 5 30 10 30 6 0 10 12 10 26 0 21 -4 24 -20 19 -15 -5
-20 -2 -20 10 0 11 5 15 15 12 8 -4 17 -2 20 3 3 5 -10 12 -29 15 l-34 7 -4
86 c-3 70 -1 89 12 99 13 10 13 13 -4 26 -17 13 -12 15 55 21 41 3 90 4 109 1
19 -3 29 -3 23 1 -18 8 -16 24 3 24 8 0 12 5 9 10 -3 6 -15 10 -26 10 -10 0
-19 5 -19 10 0 6 -19 11 -42 12 -41 1 -41 1 -8 5 45 6 66 25 65 60 0 22 -4 27
-20 25 -15 -2 -20 4 -21 23 -2 25 10 33 21 15 8 -12 55 -13 55 -1 0 5 -17 12
-37 16 -21 4 -44 11 -50 17 -7 6 -13 8 -13 4 0 -10 -55 20 -69 38 -12 14 -10
16 8 16 25 0 29 20 4 20 -15 1 -14 4 6 21 21 17 22 22 10 30 -7 5 -23 9 -33 9
-11 0 -16 3 -12 7 4 4 35 9 68 10 34 1 66 8 72 14 8 9 8 10 -1 5 -8 -4 -13 -2
-13 6 1 17 29 66 30 51 0 -20 17 -15 23 7 3 12 -1 24 -11 29 -12 7 -9 10 16
16 46 10 40 29 -7 22 -21 -2 -57 -1 -80 3 -32 6 -41 4 -41 -6 0 -8 -6 -14 -14
-14 -27 0 -25 16 5 29 24 11 27 16 19 32 -11 20 2 59 20 59 5 0 7 7 4 15 -4 8
1 26 9 39 16 23 15 24 -31 36 -133 34 -158 51 -106 70 32 12 78 15 394 25 124
4 288 11 365 15 214 11 361 11 458 0z"/>
</g>
</svg>
